<svg width="1440" height="780" viewBox="0 0 1440 780" fill="none" xmlns="http://www.w3.org/2000/svg">
<path d="M0 0H1440V780H0V0Z" fill="#00011D"/>
<ellipse cx="1115.5" cy="304.289" rx="1.5" ry="1.73149" transform="rotate(-180 1115.5 304.289)" fill="#0A0D22"/>
<ellipse cx="782.5" cy="218.868" rx="1.5" ry="1.73149" transform="rotate(-180 782.5 218.868)" fill="#0A0D22"/>
<ellipse cx="626.5" cy="124.214" rx="1.5" ry="1.73149" transform="rotate(-180 626.5 124.214)" fill="#0A0D22"/>
<ellipse cx="778" cy="374.126" rx="3" ry="3.46299" transform="rotate(-180 778 374.126)" fill="#0A0D22"/>
<ellipse cx="1052" cy="360.274" rx="3" ry="3.46299" transform="rotate(-180 1052 360.274)" fill="#0A0D22"/>
<ellipse cx="277" cy="129.408" rx="3" ry="3.46299" transform="rotate(-180 277 129.408)" fill="#0A0D22"/>
<ellipse cx="1255" cy="185.971" rx="3" ry="3.46299" transform="rotate(-180 1255 185.971)" fill="#0A0D22"/>
<ellipse cx="207" cy="352.193" rx="3" ry="3.46299" transform="rotate(-180 207 352.193)" fill="#0A0D22"/>
<ellipse cx="443" cy="76.3085" rx="2" ry="2.30866" transform="rotate(-180 443 76.3085)" fill="#0A0D22"/>
<ellipse cx="398" cy="308.329" rx="2" ry="2.30866" transform="rotate(-180 398 308.329)" fill="#0A0D22"/>
<ellipse cx="1387" cy="203.285" rx="2" ry="2.30866" transform="rotate(-180 1387 203.285)" fill="#0A0D22"/>
<ellipse cx="490" cy="375.28" rx="2" ry="2.30866" transform="rotate(-180 490 375.28)" fill="#0A0D22"/>
<ellipse cx="566.5" cy="256.3" rx="1.5" ry="1.73149" fill="#0A0D22"/>
<ellipse cx="899.5" cy="341.721" rx="1.5" ry="1.73149" fill="#0A0D22"/>
<ellipse cx="1055.5" cy="436.375" rx="1.5" ry="1.73149" fill="#0A0D22"/>
<ellipse cx="904" cy="186.463" rx="3" ry="3.46299" fill="#0A0D22"/>
<ellipse cx="630" cy="200.315" rx="3" ry="3.46299" fill="#0A0D22"/>
<ellipse cx="1405" cy="431.181" rx="3" ry="3.46299" fill="#0A0D22"/>
<ellipse cx="427" cy="374.618" rx="3" ry="3.46299" fill="#0A0D22"/>
<ellipse cx="1239" cy="484.28" rx="2" ry="2.30866" fill="#0A0D22"/>
<ellipse cx="1284" cy="252.26" rx="2" ry="2.30866" fill="#0A0D22"/>
<ellipse cx="295" cy="357.304" rx="2" ry="2.30866" fill="#0A0D22"/>
<ellipse cx="1192" cy="185.309" rx="2" ry="2.30866" fill="#0A0D22"/>
<mask id="mask0_361_183" style="mask-type:alpha" maskUnits="userSpaceOnUse" x="0" y="54" width="1440" height="295">
<rect y="54" width="1440" height="295" fill="#D2D7E4"/>
</mask>
<g mask="url(#mask0_361_183)">
<ellipse cx="456.5" cy="229.3" rx="1.5" ry="1.73149" fill="#0A0D22"/>
<ellipse cx="789.5" cy="314.721" rx="1.5" ry="1.73149" fill="#0A0D22"/>
<ellipse cx="794" cy="159.463" rx="3" ry="3.46299" fill="#0A0D22"/>
<ellipse cx="520" cy="173.315" rx="3" ry="3.46299" fill="#0A0D22"/>
<ellipse cx="317" cy="347.618" rx="3" ry="3.46299" fill="#0A0D22"/>
<ellipse cx="1365" cy="181.396" rx="3" ry="3.46299" fill="#0A0D22"/>
<ellipse cx="1174" cy="225.26" rx="2" ry="2.30866" fill="#0A0D22"/>
<ellipse cx="185" cy="330.304" rx="2" ry="2.30866" fill="#0A0D22"/>
<ellipse cx="1082" cy="158.309" rx="2" ry="2.30866" fill="#0A0D22"/>
</g>
<g filter="url(#filter0_f_361_183)">
<ellipse cx="1166" cy="235" rx="239" ry="65" fill="url(#paint0_radial_361_183)" fill-opacity="0.8"/>
</g>
<g filter="url(#filter1_f_361_183)">
<ellipse cx="481" cy="114" rx="239" ry="65" fill="url(#paint1_radial_361_183)" fill-opacity="0.8"/>
</g>
<g filter="url(#filter2_f_361_183)">
<ellipse cx="86" cy="398" rx="239" ry="65" fill="url(#paint2_radial_361_183)" fill-opacity="0.8"/>
</g>
<ellipse cx="1102.51" cy="121.885" rx="1.27889" ry="0.826691" transform="rotate(-180 1102.51 121.885)" fill="#A2A4B0"/>
<ellipse cx="818.6" cy="81.101" rx="1.27889" ry="0.826691" transform="rotate(-180 818.6 81.101)" fill="#A2A4B0"/>
<ellipse cx="685.596" cy="35.9096" rx="1.27889" ry="0.826691" transform="rotate(-180 685.596 35.9096)" fill="#A2A4B0"/>
<ellipse cx="814.763" cy="155.228" rx="2.55778" ry="1.65338" transform="rotate(-180 814.763 155.228)" fill="#A2A4B0"/>
<ellipse cx="1048.37" cy="148.615" rx="2.55778" ry="1.65338" transform="rotate(-180 1048.37 148.615)" fill="#A2A4B0"/>
<ellipse cx="387.615" cy="38.3896" rx="2.55778" ry="1.65338" transform="rotate(-180 387.615 38.3896)" fill="#A2A4B0"/>
<ellipse cx="1221.45" cy="65.3945" rx="2.55778" ry="1.65338" transform="rotate(-180 1221.45 65.3945)" fill="#A2A4B0"/>
<ellipse cx="327.933" cy="144.757" rx="2.55778" ry="1.65338" transform="rotate(-180 327.933 144.757)" fill="#A2A4B0"/>
<ellipse cx="529.145" cy="13.0374" rx="1.70518" ry="1.10225" transform="rotate(-180 529.145 13.0374)" fill="#A2A4B0"/>
<ellipse cx="490.778" cy="123.814" rx="1.70518" ry="1.10225" transform="rotate(-180 490.778 123.814)" fill="#A2A4B0"/>
<ellipse cx="1333.99" cy="73.6614" rx="1.70518" ry="1.10225" transform="rotate(-180 1333.99 73.6614)" fill="#A2A4B0"/>
<ellipse cx="569.217" cy="155.78" rx="1.70518" ry="1.10225" transform="rotate(-180 569.217 155.78)" fill="#A2A4B0"/>
<ellipse cx="634.44" cy="98.9742" rx="1.27889" ry="0.826691" fill="#A2A4B0"/>
<ellipse cx="918.353" cy="139.757" rx="1.27889" ry="0.826691" fill="#A2A4B0"/>
<ellipse cx="1051.36" cy="184.95" rx="1.27889" ry="0.826691" fill="#A2A4B0"/>
<ellipse cx="922.19" cy="65.6309" rx="2.55778" ry="1.65338" fill="#A2A4B0"/>
<ellipse cx="688.58" cy="72.2442" rx="2.55778" ry="1.65338" fill="#A2A4B0"/>
<ellipse cx="1349.34" cy="182.47" rx="2.55778" ry="1.65338" fill="#A2A4B0"/>
<ellipse cx="515.503" cy="155.464" rx="2.55778" ry="1.65338" fill="#A2A4B0"/>
<ellipse cx="1409.02" cy="76.1026" rx="2.55778" ry="1.65338" fill="#A2A4B0"/>
<ellipse cx="1207.81" cy="207.822" rx="1.70518" ry="1.10225" fill="#A2A4B0"/>
<ellipse cx="1246.17" cy="97.0456" rx="1.70518" ry="1.10225" fill="#A2A4B0"/>
<ellipse cx="402.961" cy="147.198" rx="1.70518" ry="1.10225" fill="#A2A4B0"/>
<ellipse cx="1167.74" cy="65.0798" rx="1.70518" ry="1.10225" fill="#A2A4B0"/>
<mask id="mask1_361_183" style="mask-type:alpha" maskUnits="userSpaceOnUse" x="151" y="2" width="1229" height="142">
<rect x="151.447" y="2.38672" width="1227.73" height="140.846" fill="#D2D7E4"/>
</mask>
<g mask="url(#mask1_361_183)">
<ellipse cx="540.655" cy="86.0826" rx="1.27889" ry="0.826691" fill="#A2A4B0"/>
<ellipse cx="824.568" cy="126.866" rx="1.27889" ry="0.826691" fill="#A2A4B0"/>
<ellipse cx="828.404" cy="52.7393" rx="2.55778" ry="1.65338" fill="#A2A4B0"/>
<ellipse cx="594.794" cy="59.3526" rx="2.55778" ry="1.65338" fill="#A2A4B0"/>
<ellipse cx="421.718" cy="142.572" rx="2.55778" ry="1.65338" fill="#A2A4B0"/>
<ellipse cx="1315.23" cy="63.211" rx="2.55778" ry="1.65338" fill="#A2A4B0"/>
<ellipse cx="1152.39" cy="84.154" rx="1.70518" ry="1.10225" fill="#A2A4B0"/>
<ellipse cx="309.176" cy="134.306" rx="1.70518" ry="1.10225" fill="#A2A4B0"/>
<ellipse cx="1073.95" cy="52.1882" rx="1.70518" ry="1.10225" fill="#A2A4B0"/>
</g>
<g filter="url(#filter3_f_361_183)">
<ellipse cx="1145.57" cy="88.8043" rx="203.769" ry="31.0338" fill="url(#paint3_radial_361_183)" fill-opacity="0.8"/>
</g>
<g filter="url(#filter4_f_361_183)">
<ellipse cx="561.543" cy="31.0338" rx="203.769" ry="31.0338" fill="url(#paint4_radial_361_183)" fill-opacity="0.8"/>
</g>
<g filter="url(#filter5_f_361_183)">
<ellipse cx="224.769" cy="166.628" rx="203.769" ry="31.0338" fill="url(#paint5_radial_361_183)" fill-opacity="0.8"/>
</g>
<ellipse cx="340.161" cy="267.991" rx="1.27623" ry="0.826691" fill="#A2A4B0"/>
<ellipse cx="623.483" cy="308.774" rx="1.27623" ry="0.826691" fill="#A2A4B0"/>
<ellipse cx="756.211" cy="353.966" rx="1.27623" ry="0.826691" fill="#A2A4B0"/>
<ellipse cx="627.312" cy="234.648" rx="2.55245" ry="1.65338" fill="#A2A4B0"/>
<ellipse cx="394.188" cy="241.261" rx="2.55245" ry="1.65338" fill="#A2A4B0"/>
<ellipse cx="1053.57" cy="351.486" rx="2.55245" ry="1.65338" fill="#A2A4B0"/>
<ellipse cx="221.472" cy="324.481" rx="2.55245" ry="1.65338" fill="#A2A4B0"/>
<ellipse cx="1113.13" cy="245.119" rx="2.55245" ry="1.65338" fill="#A2A4B0"/>
<ellipse cx="912.336" cy="376.839" rx="1.70164" ry="1.10225" fill="#A2A4B0"/>
<ellipse cx="950.623" cy="266.062" rx="1.70164" ry="1.10225" fill="#A2A4B0"/>
<ellipse cx="109.163" cy="316.215" rx="1.70164" ry="1.10225" fill="#A2A4B0"/>
<ellipse cx="872.347" cy="234.096" rx="1.70164" ry="1.10225" fill="#A2A4B0"/>
<ellipse cx="807.26" cy="290.903" rx="1.27623" ry="0.826691" transform="rotate(-180 807.26 290.903)" fill="#A2A4B0"/>
<ellipse cx="523.937" cy="250.12" rx="1.27623" ry="0.826691" transform="rotate(-180 523.937 250.12)" fill="#A2A4B0"/>
<ellipse cx="391.21" cy="204.927" rx="1.27623" ry="0.826691" transform="rotate(-180 391.21 204.927)" fill="#A2A4B0"/>
<ellipse cx="520.109" cy="324.246" rx="2.55245" ry="1.65338" transform="rotate(-180 520.109 324.246)" fill="#A2A4B0"/>
<ellipse cx="753.233" cy="317.633" rx="2.55245" ry="1.65338" transform="rotate(-180 753.233 317.633)" fill="#A2A4B0"/>
<ellipse cx="93.8489" cy="207.407" rx="2.55245" ry="1.65338" transform="rotate(-180 93.8489 207.407)" fill="#A2A4B0"/>
<ellipse cx="925.949" cy="234.413" rx="2.55245" ry="1.65338" transform="rotate(-180 925.949 234.413)" fill="#A2A4B0"/>
<ellipse cx="34.2915" cy="313.774" rx="2.55245" ry="1.65338" transform="rotate(-180 34.2915 313.774)" fill="#A2A4B0"/>
<ellipse cx="235.085" cy="182.055" rx="1.70164" ry="1.10225" transform="rotate(-180 235.085 182.055)" fill="#A2A4B0"/>
<ellipse cx="196.798" cy="292.831" rx="1.70164" ry="1.10225" transform="rotate(-180 196.798 292.831)" fill="#A2A4B0"/>
<ellipse cx="1038.26" cy="242.679" rx="1.70164" ry="1.10225" transform="rotate(-180 1038.26 242.679)" fill="#A2A4B0"/>
<ellipse cx="275.073" cy="324.797" rx="1.70164" ry="1.10225" transform="rotate(-180 275.073 324.797)" fill="#A2A4B0"/>
<mask id="mask2_361_183" style="mask-type:alpha" maskUnits="userSpaceOnUse" x="64" y="246" width="1226" height="142">
<rect x="1289.25" y="387.49" width="1225.18" height="140.846" transform="rotate(-180 1289.25 387.49)" fill="#D2D7E4"/>
</mask>
<g mask="url(#mask2_361_183)">
<ellipse cx="900.85" cy="303.794" rx="1.27623" ry="0.826691" transform="rotate(-180 900.85 303.794)" fill="#A2A4B0"/>
<ellipse cx="617.527" cy="263.011" rx="1.27623" ry="0.826691" transform="rotate(-180 617.527 263.011)" fill="#A2A4B0"/>
<ellipse cx="613.699" cy="337.138" rx="2.55245" ry="1.65338" transform="rotate(-180 613.699 337.138)" fill="#A2A4B0"/>
<ellipse cx="846.823" cy="330.524" rx="2.55245" ry="1.65338" transform="rotate(-180 846.823 330.524)" fill="#A2A4B0"/>
<ellipse cx="1019.54" cy="247.305" rx="2.55245" ry="1.65338" transform="rotate(-180 1019.54 247.305)" fill="#A2A4B0"/>
<ellipse cx="127.882" cy="326.666" rx="2.55245" ry="1.65338" transform="rotate(-180 127.882 326.666)" fill="#A2A4B0"/>
<ellipse cx="290.388" cy="305.723" rx="1.70164" ry="1.10225" transform="rotate(-180 290.388 305.723)" fill="#A2A4B0"/>
<ellipse cx="1131.85" cy="255.571" rx="1.70164" ry="1.10225" transform="rotate(-180 1131.85 255.571)" fill="#A2A4B0"/>
<ellipse cx="368.663" cy="337.689" rx="1.70164" ry="1.10225" transform="rotate(-180 368.663 337.689)" fill="#A2A4B0"/>
</g>
<g filter="url(#filter6_f_361_183)">
<ellipse cx="297.194" cy="301.073" rx="203.346" ry="31.0338" transform="rotate(-180 297.194 301.073)" fill="url(#paint6_radial_361_183)" fill-opacity="0.8"/>
</g>
<g filter="url(#filter7_f_361_183)">
<ellipse cx="880.005" cy="358.843" rx="203.346" ry="31.0338" transform="rotate(-180 880.005 358.843)" fill="url(#paint7_radial_361_183)" fill-opacity="0.8"/>
</g>
<g filter="url(#filter8_f_361_183)">
<ellipse cx="1216.08" cy="223.248" rx="203.346" ry="31.0338" transform="rotate(-180 1216.08 223.248)" fill="url(#paint8_radial_361_183)" fill-opacity="0.8"/>
</g>
<ellipse cx="1113.51" cy="523.885" rx="1.27889" ry="0.826691" transform="rotate(-180 1113.51 523.885)" fill="#A2A4B0"/>
<ellipse cx="829.6" cy="483.101" rx="1.27889" ry="0.826691" transform="rotate(-180 829.6 483.101)" fill="#A2A4B0"/>
<ellipse cx="696.596" cy="437.91" rx="1.27889" ry="0.826691" transform="rotate(-180 696.596 437.91)" fill="#A2A4B0"/>
<ellipse cx="825.763" cy="557.228" rx="2.55778" ry="1.65338" transform="rotate(-180 825.763 557.228)" fill="#A2A4B0"/>
<ellipse cx="1059.37" cy="550.615" rx="2.55778" ry="1.65338" transform="rotate(-180 1059.37 550.615)" fill="#A2A4B0"/>
<ellipse cx="398.615" cy="440.39" rx="2.55778" ry="1.65338" transform="rotate(-180 398.615 440.39)" fill="#A2A4B0"/>
<ellipse cx="1232.45" cy="467.394" rx="2.55778" ry="1.65338" transform="rotate(-180 1232.45 467.394)" fill="#A2A4B0"/>
<ellipse cx="338.933" cy="546.757" rx="2.55778" ry="1.65338" transform="rotate(-180 338.933 546.757)" fill="#A2A4B0"/>
<ellipse cx="540.145" cy="415.037" rx="1.70518" ry="1.10225" transform="rotate(-180 540.145 415.037)" fill="#A2A4B0"/>
<ellipse cx="501.778" cy="525.814" rx="1.70518" ry="1.10225" transform="rotate(-180 501.778 525.814)" fill="#A2A4B0"/>
<ellipse cx="1344.99" cy="475.661" rx="1.70518" ry="1.10225" transform="rotate(-180 1344.99 475.661)" fill="#A2A4B0"/>
<ellipse cx="580.217" cy="557.78" rx="1.70518" ry="1.10225" transform="rotate(-180 580.217 557.78)" fill="#A2A4B0"/>
<ellipse cx="645.44" cy="500.974" rx="1.27889" ry="0.826691" fill="#A2A4B0"/>
<ellipse cx="929.353" cy="541.757" rx="1.27889" ry="0.826691" fill="#A2A4B0"/>
<ellipse cx="1062.36" cy="586.95" rx="1.27889" ry="0.826691" fill="#A2A4B0"/>
<ellipse cx="933.19" cy="467.631" rx="2.55778" ry="1.65338" fill="#A2A4B0"/>
<ellipse cx="699.58" cy="474.244" rx="2.55778" ry="1.65338" fill="#A2A4B0"/>
<ellipse cx="1360.34" cy="584.47" rx="2.55778" ry="1.65338" fill="#A2A4B0"/>
<ellipse cx="526.503" cy="557.464" rx="2.55778" ry="1.65338" fill="#A2A4B0"/>
<ellipse cx="1420.02" cy="478.103" rx="2.55778" ry="1.65338" fill="#A2A4B0"/>
<ellipse cx="1218.81" cy="609.822" rx="1.70518" ry="1.10225" fill="#A2A4B0"/>
<ellipse cx="1257.17" cy="499.046" rx="1.70518" ry="1.10225" fill="#A2A4B0"/>
<ellipse cx="413.961" cy="549.198" rx="1.70518" ry="1.10225" fill="#A2A4B0"/>
<ellipse cx="1178.74" cy="467.08" rx="1.70518" ry="1.10225" fill="#A2A4B0"/>
<mask id="mask3_361_183" style="mask-type:alpha" maskUnits="userSpaceOnUse" x="162" y="404" width="1229" height="142">
<rect x="162.447" y="404.387" width="1227.73" height="140.846" fill="#D2D7E4"/>
</mask>
<g mask="url(#mask3_361_183)">
<ellipse cx="551.655" cy="488.083" rx="1.27889" ry="0.826691" fill="#A2A4B0"/>
<ellipse cx="835.568" cy="528.866" rx="1.27889" ry="0.826691" fill="#A2A4B0"/>
<ellipse cx="839.404" cy="454.739" rx="2.55778" ry="1.65338" fill="#A2A4B0"/>
<ellipse cx="605.794" cy="461.353" rx="2.55778" ry="1.65338" fill="#A2A4B0"/>
<ellipse cx="432.718" cy="544.572" rx="2.55778" ry="1.65338" fill="#A2A4B0"/>
<ellipse cx="1326.23" cy="465.211" rx="2.55778" ry="1.65338" fill="#A2A4B0"/>
<ellipse cx="1163.39" cy="486.154" rx="1.70518" ry="1.10225" fill="#A2A4B0"/>
<ellipse cx="320.176" cy="536.306" rx="1.70518" ry="1.10225" fill="#A2A4B0"/>
<ellipse cx="1084.95" cy="454.188" rx="1.70518" ry="1.10225" fill="#A2A4B0"/>
</g>
<g filter="url(#filter9_f_361_183)">
<ellipse cx="1156.57" cy="490.804" rx="203.769" ry="31.0338" fill="url(#paint9_radial_361_183)" fill-opacity="0.8"/>
</g>
<g filter="url(#filter10_f_361_183)">
<ellipse cx="572.543" cy="433.034" rx="203.769" ry="31.0338" fill="url(#paint10_radial_361_183)" fill-opacity="0.8"/>
</g>
<g filter="url(#filter11_f_361_183)">
<ellipse cx="235.769" cy="568.628" rx="203.769" ry="31.0338" fill="url(#paint11_radial_361_183)" fill-opacity="0.8"/>
</g>
<ellipse cx="351.161" cy="669.991" rx="1.27623" ry="0.826691" fill="#A2A4B0"/>
<ellipse cx="634.483" cy="710.774" rx="1.27623" ry="0.826691" fill="#A2A4B0"/>
<ellipse cx="767.211" cy="755.966" rx="1.27623" ry="0.826691" fill="#A2A4B0"/>
<ellipse cx="638.312" cy="636.648" rx="2.55245" ry="1.65338" fill="#A2A4B0"/>
<ellipse cx="405.188" cy="643.261" rx="2.55245" ry="1.65338" fill="#A2A4B0"/>
<ellipse cx="1064.57" cy="753.486" rx="2.55245" ry="1.65338" fill="#A2A4B0"/>
<ellipse cx="232.472" cy="726.481" rx="2.55245" ry="1.65338" fill="#A2A4B0"/>
<ellipse cx="1124.13" cy="647.119" rx="2.55245" ry="1.65338" fill="#A2A4B0"/>
<ellipse cx="923.336" cy="778.839" rx="1.70164" ry="1.10225" fill="#A2A4B0"/>
<ellipse cx="961.623" cy="668.062" rx="1.70164" ry="1.10225" fill="#A2A4B0"/>
<ellipse cx="120.163" cy="718.215" rx="1.70164" ry="1.10225" fill="#A2A4B0"/>
<ellipse cx="883.347" cy="636.096" rx="1.70164" ry="1.10225" fill="#A2A4B0"/>
<ellipse cx="818.26" cy="692.903" rx="1.27623" ry="0.826691" transform="rotate(-180 818.26 692.903)" fill="#A2A4B0"/>
<ellipse cx="534.937" cy="652.12" rx="1.27623" ry="0.826691" transform="rotate(-180 534.937 652.12)" fill="#A2A4B0"/>
<ellipse cx="402.21" cy="606.927" rx="1.27623" ry="0.826691" transform="rotate(-180 402.21 606.927)" fill="#A2A4B0"/>
<ellipse cx="531.109" cy="726.246" rx="2.55245" ry="1.65338" transform="rotate(-180 531.109 726.246)" fill="#A2A4B0"/>
<ellipse cx="764.233" cy="719.633" rx="2.55245" ry="1.65338" transform="rotate(-180 764.233 719.633)" fill="#A2A4B0"/>
<ellipse cx="104.849" cy="609.407" rx="2.55245" ry="1.65338" transform="rotate(-180 104.849 609.407)" fill="#A2A4B0"/>
<ellipse cx="936.949" cy="636.413" rx="2.55245" ry="1.65338" transform="rotate(-180 936.949 636.413)" fill="#A2A4B0"/>
<ellipse cx="45.2915" cy="715.774" rx="2.55245" ry="1.65338" transform="rotate(-180 45.2915 715.774)" fill="#A2A4B0"/>
<ellipse cx="246.085" cy="584.055" rx="1.70164" ry="1.10225" transform="rotate(-180 246.085 584.055)" fill="#A2A4B0"/>
<ellipse cx="207.798" cy="694.831" rx="1.70164" ry="1.10225" transform="rotate(-180 207.798 694.831)" fill="#A2A4B0"/>
<ellipse cx="1049.26" cy="644.679" rx="1.70164" ry="1.10225" transform="rotate(-180 1049.26 644.679)" fill="#A2A4B0"/>
<ellipse cx="286.073" cy="726.797" rx="1.70164" ry="1.10225" transform="rotate(-180 286.073 726.797)" fill="#A2A4B0"/>
<mask id="mask4_361_183" style="mask-type:alpha" maskUnits="userSpaceOnUse" x="75" y="648" width="1226" height="142">
<rect x="1300.25" y="789.49" width="1225.18" height="140.846" transform="rotate(-180 1300.25 789.49)" fill="#D2D7E4"/>
</mask>
<g mask="url(#mask4_361_183)">
<ellipse cx="911.85" cy="705.794" rx="1.27623" ry="0.826691" transform="rotate(-180 911.85 705.794)" fill="#A2A4B0"/>
<ellipse cx="628.527" cy="665.011" rx="1.27623" ry="0.826691" transform="rotate(-180 628.527 665.011)" fill="#A2A4B0"/>
<ellipse cx="624.699" cy="739.138" rx="2.55245" ry="1.65338" transform="rotate(-180 624.699 739.138)" fill="#A2A4B0"/>
<ellipse cx="857.823" cy="732.524" rx="2.55245" ry="1.65338" transform="rotate(-180 857.823 732.524)" fill="#A2A4B0"/>
<ellipse cx="1030.54" cy="649.305" rx="2.55245" ry="1.65338" transform="rotate(-180 1030.54 649.305)" fill="#A2A4B0"/>
<ellipse cx="138.882" cy="728.666" rx="2.55245" ry="1.65338" transform="rotate(-180 138.882 728.666)" fill="#A2A4B0"/>
<ellipse cx="301.388" cy="707.723" rx="1.70164" ry="1.10225" transform="rotate(-180 301.388 707.723)" fill="#A2A4B0"/>
<ellipse cx="1142.85" cy="657.571" rx="1.70164" ry="1.10225" transform="rotate(-180 1142.85 657.571)" fill="#A2A4B0"/>
<ellipse cx="379.663" cy="739.689" rx="1.70164" ry="1.10225" transform="rotate(-180 379.663 739.689)" fill="#A2A4B0"/>
</g>
<g filter="url(#filter12_f_361_183)">
<ellipse cx="308.194" cy="703.073" rx="203.346" ry="31.0338" transform="rotate(-180 308.194 703.073)" fill="url(#paint12_radial_361_183)" fill-opacity="0.8"/>
</g>
<g filter="url(#filter13_f_361_183)">
<ellipse cx="891.005" cy="760.843" rx="203.346" ry="31.0338" transform="rotate(-180 891.005 760.843)" fill="url(#paint13_radial_361_183)" fill-opacity="0.8"/>
</g>
<g filter="url(#filter14_f_361_183)">
<ellipse cx="1227.08" cy="625.248" rx="203.346" ry="31.0338" transform="rotate(-180 1227.08 625.248)" fill="url(#paint14_radial_361_183)" fill-opacity="0.8"/>
</g>
<defs>
<filter id="filter0_f_361_183" x="752" y="-5" width="828" height="480" filterUnits="userSpaceOnUse" color-interpolation-filters="sRGB">
<feFlood flood-opacity="0" result="BackgroundImageFix"/>
<feBlend mode="normal" in="SourceGraphic" in2="BackgroundImageFix" result="shape"/>
<feGaussianBlur stdDeviation="87.5" result="effect1_foregroundBlur_361_183"/>
</filter>
<filter id="filter1_f_361_183" x="67" y="-126" width="828" height="480" filterUnits="userSpaceOnUse" color-interpolation-filters="sRGB">
<feFlood flood-opacity="0" result="BackgroundImageFix"/>
<feBlend mode="normal" in="SourceGraphic" in2="BackgroundImageFix" result="shape"/>
<feGaussianBlur stdDeviation="87.5" result="effect1_foregroundBlur_361_183"/>
</filter>
<filter id="filter2_f_361_183" x="-328" y="158" width="828" height="480" filterUnits="userSpaceOnUse" color-interpolation-filters="sRGB">
<feFlood flood-opacity="0" result="BackgroundImageFix"/>
<feBlend mode="normal" in="SourceGraphic" in2="BackgroundImageFix" result="shape"/>
<feGaussianBlur stdDeviation="87.5" result="effect1_foregroundBlur_361_183"/>
</filter>
<filter id="filter3_f_361_183" x="766.799" y="-117.229" width="757.539" height="412.067" filterUnits="userSpaceOnUse" color-interpolation-filters="sRGB">
<feFlood flood-opacity="0" result="BackgroundImageFix"/>
<feBlend mode="normal" in="SourceGraphic" in2="BackgroundImageFix" result="shape"/>
<feGaussianBlur stdDeviation="87.5" result="effect1_foregroundBlur_361_183"/>
</filter>
<filter id="filter4_f_361_183" x="182.774" y="-175" width="757.539" height="412.067" filterUnits="userSpaceOnUse" color-interpolation-filters="sRGB">
<feFlood flood-opacity="0" result="BackgroundImageFix"/>
<feBlend mode="normal" in="SourceGraphic" in2="BackgroundImageFix" result="shape"/>
<feGaussianBlur stdDeviation="87.5" result="effect1_foregroundBlur_361_183"/>
</filter>
<filter id="filter5_f_361_183" x="-154" y="-39.4062" width="757.539" height="412.067" filterUnits="userSpaceOnUse" color-interpolation-filters="sRGB">
<feFlood flood-opacity="0" result="BackgroundImageFix"/>
<feBlend mode="normal" in="SourceGraphic" in2="BackgroundImageFix" result="shape"/>
<feGaussianBlur stdDeviation="87.5" result="effect1_foregroundBlur_361_183"/>
</filter>
<filter id="filter6_f_361_183" x="-81.1512" y="95.0391" width="756.691" height="412.067" filterUnits="userSpaceOnUse" color-interpolation-filters="sRGB">
<feFlood flood-opacity="0" result="BackgroundImageFix"/>
<feBlend mode="normal" in="SourceGraphic" in2="BackgroundImageFix" result="shape"/>
<feGaussianBlur stdDeviation="87.5" result="effect1_foregroundBlur_361_183"/>
</filter>
<filter id="filter7_f_361_183" x="501.659" y="152.81" width="756.691" height="412.067" filterUnits="userSpaceOnUse" color-interpolation-filters="sRGB">
<feFlood flood-opacity="0" result="BackgroundImageFix"/>
<feBlend mode="normal" in="SourceGraphic" in2="BackgroundImageFix" result="shape"/>
<feGaussianBlur stdDeviation="87.5" result="effect1_foregroundBlur_361_183"/>
</filter>
<filter id="filter8_f_361_183" x="837.732" y="17.2148" width="756.691" height="412.067" filterUnits="userSpaceOnUse" color-interpolation-filters="sRGB">
<feFlood flood-opacity="0" result="BackgroundImageFix"/>
<feBlend mode="normal" in="SourceGraphic" in2="BackgroundImageFix" result="shape"/>
<feGaussianBlur stdDeviation="87.5" result="effect1_foregroundBlur_361_183"/>
</filter>
<filter id="filter9_f_361_183" x="777.799" y="284.771" width="757.539" height="412.067" filterUnits="userSpaceOnUse" color-interpolation-filters="sRGB">
<feFlood flood-opacity="0" result="BackgroundImageFix"/>
<feBlend mode="normal" in="SourceGraphic" in2="BackgroundImageFix" result="shape"/>
<feGaussianBlur stdDeviation="87.5" result="effect1_foregroundBlur_361_183"/>
</filter>
<filter id="filter10_f_361_183" x="193.774" y="227" width="757.539" height="412.067" filterUnits="userSpaceOnUse" color-interpolation-filters="sRGB">
<feFlood flood-opacity="0" result="BackgroundImageFix"/>
<feBlend mode="normal" in="SourceGraphic" in2="BackgroundImageFix" result="shape"/>
<feGaussianBlur stdDeviation="87.5" result="effect1_foregroundBlur_361_183"/>
</filter>
<filter id="filter11_f_361_183" x="-143" y="362.594" width="757.539" height="412.067" filterUnits="userSpaceOnUse" color-interpolation-filters="sRGB">
<feFlood flood-opacity="0" result="BackgroundImageFix"/>
<feBlend mode="normal" in="SourceGraphic" in2="BackgroundImageFix" result="shape"/>
<feGaussianBlur stdDeviation="87.5" result="effect1_foregroundBlur_361_183"/>
</filter>
<filter id="filter12_f_361_183" x="-70.1512" y="497.039" width="756.691" height="412.067" filterUnits="userSpaceOnUse" color-interpolation-filters="sRGB">
<feFlood flood-opacity="0" result="BackgroundImageFix"/>
<feBlend mode="normal" in="SourceGraphic" in2="BackgroundImageFix" result="shape"/>
<feGaussianBlur stdDeviation="87.5" result="effect1_foregroundBlur_361_183"/>
</filter>
<filter id="filter13_f_361_183" x="512.659" y="554.81" width="756.691" height="412.067" filterUnits="userSpaceOnUse" color-interpolation-filters="sRGB">
<feFlood flood-opacity="0" result="BackgroundImageFix"/>
<feBlend mode="normal" in="SourceGraphic" in2="BackgroundImageFix" result="shape"/>
<feGaussianBlur stdDeviation="87.5" result="effect1_foregroundBlur_361_183"/>
</filter>
<filter id="filter14_f_361_183" x="848.732" y="419.215" width="756.691" height="412.067" filterUnits="userSpaceOnUse" color-interpolation-filters="sRGB">
<feFlood flood-opacity="0" result="BackgroundImageFix"/>
<feBlend mode="normal" in="SourceGraphic" in2="BackgroundImageFix" result="shape"/>
<feGaussianBlur stdDeviation="87.5" result="effect1_foregroundBlur_361_183"/>
</filter>
<radialGradient id="paint0_radial_361_183" cx="0" cy="0" r="1" gradientUnits="userSpaceOnUse" gradientTransform="translate(1166 235) scale(239 65)">
<stop stop-color="#4B5B84"/>
<stop offset="1" stop-color="#00011D"/>
</radialGradient>
<radialGradient id="paint1_radial_361_183" cx="0" cy="0" r="1" gradientUnits="userSpaceOnUse" gradientTransform="translate(481 114) scale(239 65)">
<stop stop-color="#4B5B84"/>
<stop offset="1" stop-color="#00011D"/>
</radialGradient>
<radialGradient id="paint2_radial_361_183" cx="0" cy="0" r="1" gradientUnits="userSpaceOnUse" gradientTransform="translate(86 398) scale(239 65)">
<stop stop-color="#4B5B84"/>
<stop offset="1" stop-color="#00011D"/>
</radialGradient>
<radialGradient id="paint3_radial_361_183" cx="0" cy="0" r="1" gradientUnits="userSpaceOnUse" gradientTransform="translate(1145.57 88.8043) scale(203.769 31.0338)">
<stop stop-color="#4B5B84"/>
<stop offset="1" stop-color="#00011D"/>
</radialGradient>
<radialGradient id="paint4_radial_361_183" cx="0" cy="0" r="1" gradientUnits="userSpaceOnUse" gradientTransform="translate(561.543 31.0338) scale(203.769 31.0338)">
<stop stop-color="#4B5B84"/>
<stop offset="1" stop-color="#00011D"/>
</radialGradient>
<radialGradient id="paint5_radial_361_183" cx="0" cy="0" r="1" gradientUnits="userSpaceOnUse" gradientTransform="translate(224.769 166.628) scale(203.769 31.0338)">
<stop stop-color="#4B5B84"/>
<stop offset="1" stop-color="#00011D"/>
</radialGradient>
<radialGradient id="paint6_radial_361_183" cx="0" cy="0" r="1" gradientUnits="userSpaceOnUse" gradientTransform="translate(297.194 301.073) scale(203.346 31.0338)">
<stop stop-color="#4B5B84"/>
<stop offset="1" stop-color="#00011D"/>
</radialGradient>
<radialGradient id="paint7_radial_361_183" cx="0" cy="0" r="1" gradientUnits="userSpaceOnUse" gradientTransform="translate(880.005 358.843) scale(203.346 31.0338)">
<stop stop-color="#4B5B84"/>
<stop offset="1" stop-color="#00011D"/>
</radialGradient>
<radialGradient id="paint8_radial_361_183" cx="0" cy="0" r="1" gradientUnits="userSpaceOnUse" gradientTransform="translate(1216.08 223.248) scale(203.346 31.0338)">
<stop stop-color="#4B5B84"/>
<stop offset="1" stop-color="#00011D"/>
</radialGradient>
<radialGradient id="paint9_radial_361_183" cx="0" cy="0" r="1" gradientUnits="userSpaceOnUse" gradientTransform="translate(1156.57 490.804) scale(203.769 31.0338)">
<stop stop-color="#4B5B84"/>
<stop offset="1" stop-color="#00011D"/>
</radialGradient>
<radialGradient id="paint10_radial_361_183" cx="0" cy="0" r="1" gradientUnits="userSpaceOnUse" gradientTransform="translate(572.543 433.034) scale(203.769 31.0338)">
<stop stop-color="#4B5B84"/>
<stop offset="1" stop-color="#00011D"/>
</radialGradient>
<radialGradient id="paint11_radial_361_183" cx="0" cy="0" r="1" gradientUnits="userSpaceOnUse" gradientTransform="translate(235.769 568.628) scale(203.769 31.0338)">
<stop stop-color="#4B5B84"/>
<stop offset="1" stop-color="#00011D"/>
</radialGradient>
<radialGradient id="paint12_radial_361_183" cx="0" cy="0" r="1" gradientUnits="userSpaceOnUse" gradientTransform="translate(308.194 703.073) scale(203.346 31.0338)">
<stop stop-color="#4B5B84"/>
<stop offset="1" stop-color="#00011D"/>
</radialGradient>
<radialGradient id="paint13_radial_361_183" cx="0" cy="0" r="1" gradientUnits="userSpaceOnUse" gradientTransform="translate(891.005 760.843) scale(203.346 31.0338)">
<stop stop-color="#4B5B84"/>
<stop offset="1" stop-color="#00011D"/>
</radialGradient>
<radialGradient id="paint14_radial_361_183" cx="0" cy="0" r="1" gradientUnits="userSpaceOnUse" gradientTransform="translate(1227.08 625.248) scale(203.346 31.0338)">
<stop stop-color="#4B5B84"/>
<stop offset="1" stop-color="#00011D"/>
</radialGradient>
</defs>
</svg>
