<?xml version="1.0" encoding="UTF-8"?>
<svg version="1.1" xmlns="http://www.w3.org/2000/svg" width="5921" height="1502">
<path d="M0 0 C1.63764004 -0.00148285 3.27527948 -0.0038438 4.91291717 -0.006993 C9.38998444 -0.01308697 13.8669598 -0.00681785 18.34402017 0.00156327 C23.22327928 0.00846768 28.10252963 0.00368325 32.9817906 0.00040829 C41.52537213 -0.00372932 50.06892573 -0.00046851 58.61250401 0.00768471 C71.31641049 0.01977442 84.02029943 0.02035449 96.72421062 0.01860073 C118.09609843 0.01597515 139.46797385 0.02264731 160.83985806 0.03463554 C181.99785454 0.04647336 203.15584586 0.0541682 224.31384563 0.05634117 C226.28784315 0.05654739 226.28784315 0.05654739 228.30171941 0.05675778 C233.6435496 0.05729862 238.98537978 0.05780845 244.32720997 0.05826568 C259.25796106 0.05954429 274.18871202 0.06146283 289.11946297 0.06381607 C289.79929535 0.06392271 290.47912774 0.06402934 291.17956111 0.06413921 C324.23076311 0.06937931 357.28196175 0.08199323 390.33316135 0.09521675 C401.79932751 0.09980017 413.26549367 0.10435094 424.73165989 0.10876656 C425.79839284 0.1091774 425.79839284 0.1091774 426.88667595 0.10959655 C459.96097618 0.12229021 493.035277 0.12973766 526.10957903 0.13583615 C528.25740523 0.13623227 530.40523143 0.13663066 532.55305763 0.1370295 C546.78709325 0.13966912 561.02112888 0.14221841 575.25516452 0.14470722 C603.5761436 0.14965993 631.89712257 0.15514328 660.21810148 0.16099132 C661.56674915 0.1612698 662.91539681 0.16154791 664.26404448 0.16182564 C753.948626 0.18029958 843.63320369 0.2120747 933.31778049 0.24609566 C932.65008797 3.82551768 931.77266049 6.7098328 930.13884068 9.97146797 C929.68072498 10.89326851 929.22260929 11.81506905 928.75061131 12.76480293 C928.24627567 13.76425941 927.74194004 14.7637159 927.22232151 15.79345894 C926.69203846 16.85606941 926.16175541 17.91867989 925.61540318 19.01349068 C924.16054727 21.92569457 922.70037026 24.83515284 921.23767304 27.74342394 C919.69810902 30.80744457 918.16508554 33.87473481 916.6312418 36.94162178 C914.04679738 42.10681681 911.45786001 47.26973882 908.8658762 52.43115425 C905.56887434 58.99652448 902.27910617 65.56548994 898.99176216 72.13570023 C896.13839374 77.83840633 893.2816355 83.53941308 890.42435813 89.24016142 C889.52109021 91.0426545 888.61825778 92.84536518 887.71548748 94.64810753 C877.03460822 115.96610611 877.03460822 115.96610611 871.49820042 126.37207222 C864.91718279 138.76027583 858.72707809 151.34855728 852.4801569 163.90730858 C850.19559594 168.49988614 847.90686191 173.09037642 845.61740208 177.68051338 C839.11592556 190.71659093 832.61805033 203.75445543 826.12832737 216.79638863 C822.52600199 224.03563731 818.91934274 231.27270958 815.30791497 238.50742185 C813.03506958 243.06115941 810.76747486 247.61745905 808.50383806 252.17578053 C807.09362796 255.01229206 805.6783195 257.84623668 804.26159382 260.67949867 C803.61050896 261.98407332 802.96146175 263.28966742 802.31470966 264.59639549 C793.67145776 282.05209632 782.15467982 295.77965132 768.41104221 309.41357613 C766.8111522 311.00267926 765.22233635 312.60229941 763.63418674 314.20312691 C757.18214704 320.66361534 750.46815021 326.5548676 743.31778049 332.24609566 C742.13911147 333.24616917 740.96518136 334.25188279 739.79824924 335.26562691 C675.6435339 390.14003923 594.83404496 415.50336556 511.47416424 415.35595913 C507.83217742 415.35066459 504.19019055 415.35132474 500.54820055 415.35120493 C494.17954283 415.35020285 487.8108963 415.34552691 481.44224262 415.33838463 C471.97147625 415.32779375 462.50071318 415.32306813 453.02994184 415.31959398 C437.09030702 415.31362321 421.15067801 415.30327307 405.21104717 415.29069519 C382.43226504 415.27282621 359.65348363 415.26345124 336.87469607 415.25580454 C327.72461523 415.25269572 318.57453448 415.2493135 309.42445374 415.24592876 C308.40800677 415.24555399 307.3915598 415.24517922 306.34431141 415.2447931 C282.1711601 415.23582828 257.99801029 415.22416613 233.82486057 415.21167183 C232.76769531 415.21112742 231.71053004 415.21058302 230.62132946 415.21002212 C205.95388157 415.19729642 181.28643483 415.18328338 156.61898899 415.16705513 C155.02718639 415.16600935 155.02718639 415.16600935 153.40322617 415.16494244 C148.05188109 415.1614247 142.70053602 415.15789788 137.34919094 415.15437055 C136.29152467 415.15367377 135.2338584 415.15297699 134.14414163 415.15225909 C132.00934379 415.15085234 129.87454594 415.14944408 127.7397481 415.14803429 C92.45102787 415.12477245 57.16230953 415.10832578 21.87358268 415.09935769 C16.88812338 415.09808118 11.90266411 415.09671242 6.91720486 415.09527969 C5.44555632 415.09485767 5.44555632 415.09485767 3.94417752 415.09442713 C-11.82595931 415.08967603 -27.59608215 415.07752172 -43.36621209 415.06239279 C-59.2187456 415.04730066 -75.07126961 415.03931561 -90.92381041 415.0386061 C-100.33383331 415.03795373 -109.74381354 415.03170447 -119.15382574 415.01736378 C-125.44864966 415.00832162 -131.74344861 415.00662712 -138.03827758 415.0107562 C-141.61855711 415.01289571 -145.19875809 415.01196995 -148.77902614 415.00200807 C-167.6141741 414.95240996 -185.81749156 415.34812646 -204.18221951 419.93359566 C-205.24045925 420.19414742 -206.298699 420.45469917 -207.38900661 420.72314644 C-239.78534156 428.99319517 -267.63673607 446.3920551 -291.68221951 469.24609566 C-292.31386013 469.82488472 -292.94550076 470.40367378 -293.59628201 471.00000191 C-312.85259118 489.2067966 -325.74401621 514.48454886 -336.85385036 538.13086128 C-342.61746313 550.34856624 -348.73072975 562.39303936 -354.80673122 574.45752144 C-359.18655419 583.16866229 -363.49171392 591.90687282 -367.669631 600.71673775 C-373.70184503 613.37582531 -379.94935655 625.92430733 -386.22565448 638.46369028 C-387.85561533 641.72130364 -389.48322839 644.98008993 -391.11117458 648.2387104 C-394.2830402 654.58684088 -397.45702115 660.93391131 -400.63181467 667.28057793 C-403.21560863 672.44588926 -405.79860381 677.61159932 -408.38105488 682.77758217 C-408.75135103 683.5183277 -409.12164718 684.25907323 -409.50316442 685.0222656 C-410.255847 686.52795054 -411.0085278 688.03363636 -411.76120686 689.53932306 C-418.78476114 703.5892691 -425.81074697 717.63799804 -432.8375942 731.68629739 C-438.84492361 743.69648639 -444.85015131 755.70772432 -450.85385036 767.71972847 C-457.85742353 781.73224556 -464.86231363 795.74410305 -471.8692593 809.75493407 C-472.61857449 811.25324596 -473.36788803 812.75155867 -474.1171999 814.24987221 C-474.4857028 814.98672373 -474.8542057 815.72357526 -475.23387535 816.48275562 C-477.809882 821.63391149 -480.38497009 826.78552591 -482.95968723 831.93732643 C-486.10314828 838.22707449 -489.24806858 844.51609042 -492.39477272 850.80421665 C-493.99501689 854.00210584 -495.59466313 857.20028986 -497.19252491 860.39937019 C-503.12032798 872.26642865 -509.08076983 884.10788663 -515.29378837 895.82858902 C-518.9425324 902.71363609 -522.4563745 909.65960023 -525.93270779 916.63354683 C-526.59097244 917.95035973 -527.24941567 919.26708337 -527.90801907 920.58372688 C-529.66176464 924.09093632 -531.41307575 927.59935584 -533.16388464 931.10803199 C-535.01641224 934.81944753 -536.87128908 938.52968871 -538.72589016 942.24006844 C-542.23090409 949.25318061 -545.73388386 956.26730667 -549.23609149 963.2818206 C-553.19687071 971.21455645 -557.15991671 979.14615907 -561.12316442 987.07766187 C-565.97114984 996.77981702 -570.8187757 1006.48215158 -575.6646719 1016.18535042 C-576.17599008 1017.20917987 -576.17599008 1017.20917987 -576.69763792 1018.25369275 C-578.33047717 1021.52325437 -579.96317946 1024.7928843 -581.59564686 1028.06263161 C-584.16403415 1033.20665309 -586.7330818 1038.35032723 -589.31002712 1043.49006844 C-589.68417688 1044.23664868 -590.05832664 1044.98322893 -590.44381428 1045.75243282 C-591.36189787 1047.58356221 -592.28098225 1049.41418974 -593.20019436 1051.24475288 C-595.09772743 1055.08756701 -596.89621762 1058.97206397 -598.6863699 1062.86572456 C-606.45019924 1079.64703705 -615.97075151 1094.9422933 -627.68221951 1109.24609566 C-628.11357204 1109.77364449 -628.54492458 1110.30119331 -628.98934841 1110.84472847 C-640.22175075 1124.5171744 -652.1218804 1137.84118083 -665.68221951 1149.24609566 C-666.22491482 1149.70258492 -666.76761013 1150.15907417 -667.32675076 1150.62939644 C-714.90794535 1190.45444876 -771.54368508 1215.2167064 -832.74471951 1224.99609566 C-833.9726321 1225.19485298 -835.2005447 1225.39361031 -836.46566677 1225.59839058 C-861.57068253 1229.40980476 -886.58025935 1229.53099532 -911.90582299 1229.4782269 C-917.17743373 1229.46949013 -922.44904044 1229.4725197 -927.72065639 1229.47403145 C-936.82684421 1229.47507391 -945.93300308 1229.46886464 -955.03918362 1229.45755577 C-968.204759 1229.44121634 -981.37032058 1229.43608418 -994.535905 1229.43357979 C-1015.9025555 1229.42921585 -1037.26919062 1229.41594226 -1058.63583279 1229.39697456 C-1079.37639191 1229.37858194 -1100.11694683 1229.36444204 -1120.85751247 1229.35595894 C-1122.1386022 1229.35543349 -1123.41969193 1229.35490804 -1124.73960257 1229.35436668 C-1131.16724202 1229.35175637 -1137.59488151 1229.34922901 -1144.02252102 1229.34674287 C-1197.24243113 1229.32605093 -1250.46232456 1229.29086109 -1303.68221951 1229.24609566 C-1298.05209482 1217.26671922 -1292.3101737 1205.35488158 -1286.38363552 1193.51953316 C-1285.60035006 1191.95160143 -1284.81723377 1190.38358517 -1284.03427029 1188.81549263 C-1281.9389387 1184.6203356 -1279.84114142 1180.42641643 -1277.74273324 1176.23279762 C-1275.52676556 1171.80342827 -1273.31278107 1167.37306769 -1271.09846401 1162.942873 C-1267.38229401 1155.50872345 -1263.66445618 1148.07540981 -1259.94564724 1140.64258003 C-1255.67216652 1132.10105805 -1251.40156835 1123.55809957 -1247.13246495 1115.01438904 C-1243.43937532 1107.62364288 -1239.74469845 1100.23369176 -1236.0487408 1092.84437943 C-1233.85343884 1088.45531884 -1231.65864811 1084.06600486 -1229.46530247 1079.67596626 C-1227.4010834 1075.54459695 -1225.33484534 1071.41424316 -1223.26717281 1067.28460121 C-1222.51761303 1065.7867816 -1221.76870022 1064.28863798 -1221.02055836 1062.79010963 C-1217.09199392 1054.92230012 -1213.09190105 1047.10012344 -1208.97364616 1039.32979012 C-1204.12577135 1030.14698359 -1199.43698608 1020.89166832 -1194.80233669 1011.59985542 C-1193.95954633 1009.91399372 -1193.11657723 1008.22822136 -1192.27344799 1006.54252911 C-1189.987633 1001.971191 -1187.70428786 997.39862331 -1185.42138386 992.82583094 C-1182.9470279 987.87068507 -1180.47030381 982.91672303 -1177.99386501 977.96261787 C-1173.71151802 969.39505028 -1169.43058941 960.82677524 -1165.15060329 952.25802803 C-1158.95214126 939.84849028 -1152.75104636 927.44026959 -1146.54925394 915.03239596 C-1136.47107298 894.86898162 -1126.3943822 874.70482306 -1116.31893826 854.54004097 C-1116.0181268 853.93800441 -1115.71731534 853.33596786 -1115.40738839 852.71568777 C-1110.83228296 843.55918161 -1106.25724373 834.40264238 -1101.68221951 825.24609566 C-1096.80335082 815.48142845 -1091.92445777 805.71677342 -1087.04550076 795.95215034 C-1086.74485924 795.35045273 -1086.44421773 794.74875512 -1086.13446587 794.12882425 C-1075.79082672 773.42730781 -1065.44559666 752.72658683 -1055.09912395 732.0264864 C-1048.91664256 719.65705711 -1042.73557933 707.28692116 -1036.55637932 694.91585231 C-1032.32006762 686.43477032 -1028.08231888 677.9544074 -1023.8434639 669.47459626 C-1021.40270122 664.5917331 -1018.96258923 659.70854772 -1016.52427578 654.82446098 C-1014.28565279 650.34039241 -1012.04512152 645.85728245 -1009.80316687 641.37487876 C-1008.99908861 639.76645417 -1008.19567333 638.15769789 -1007.39304781 636.54854786 C-1002.35235005 626.44383487 -997.17842674 616.41835292 -991.89281672 606.43947333 C-988.89691434 600.77625744 -986.0144224 595.05828996 -983.15023708 589.32739449 C-982.57480663 588.1798922 -981.99937618 587.03238991 -981.40650845 585.85011482 C-979.86347682 582.77269068 -978.32289108 579.69404918 -976.78305554 576.61502481 C-975.81418013 574.67799501 -974.84473229 572.74125276 -973.87509632 570.80460358 C-970.4739253 564.01144144 -967.0747624 557.21727911 -963.67758083 550.42212105 C-960.5387999 544.14395722 -957.39554736 537.86804631 -954.2502268 531.59315664 C-951.52263074 526.15112595 -948.79819132 520.70752249 -946.07611293 515.26272982 C-944.46207491 512.03440176 -942.84686746 508.80667376 -941.22843266 505.58054733 C-932.25883525 487.75200417 -932.25883525 487.75200417 -924.17372036 469.51201057 C-913.1870088 445.45458877 -892.11113002 424.2547389 -867.4767704 414.56047726 C-854.41167406 409.83375321 -840.79221072 409.77606054 -827.0872488 409.72778511 C-825.01504572 409.71015848 -822.94285177 409.69143228 -820.87066746 409.67172241 C-815.15331466 409.6217428 -809.43600467 409.59136385 -803.71849942 409.56514335 C-800.02086171 409.54663628 -796.32329999 409.5225779 -792.62570667 409.4967308 C-745.53112064 409.16880856 -698.4358885 409.21994307 -651.34050113 409.28525084 C-648.57678967 409.28906435 -645.8130781 409.29277791 -643.04936647 409.29646349 C-630.01747646 409.31390723 -616.9855895 409.33305766 -603.95370388 409.35351753 C-602.55974808 409.35569853 -602.55974808 409.35569853 -601.13763157 409.3579236 C-578.17167913 409.39404274 -555.20578255 409.44035989 -532.2398806 409.50057133 C-516.13571631 409.54241792 -500.03157407 409.5687413 -483.92736071 409.5817793 C-474.12262137 409.59026811 -464.31807164 409.61089245 -454.51339956 409.64840803 C-447.84992625 409.67283227 -441.1865326 409.68236781 -434.52301524 409.68058797 C-430.70554116 409.68001685 -426.88837195 409.68560477 -423.07096577 409.7094593 C-383.95741635 409.94264712 -347.26381431 401.87234335 -312.68221951 383.24609566 C-312.01883572 382.89434273 -311.35545193 382.5425898 -310.6719656 382.18017769 C-258.60423348 354.45806619 -227.65656701 308.50303389 -203.05697536 256.40332222 C-198.45567729 246.68150383 -193.62710478 237.07659323 -188.77865505 227.47632027 C-185.00631474 219.99017596 -181.34389111 212.45953485 -177.74862576 204.88672066 C-170.98321747 190.66299006 -163.92763769 176.58489281 -156.87533474 162.50195503 C-154.99137611 158.73975322 -153.11107391 154.9757373 -151.23170376 151.21124172 C-143.83906769 136.40688212 -136.39646222 121.64242785 -128.62499905 107.03228951 C-126.44903679 102.90970281 -124.37334049 98.73698809 -122.30721951 94.55859566 C-121.90889919 93.75744331 -121.51057888 92.95629097 -121.10018826 92.13086128 C-120.32296001 90.56748578 -119.54686466 89.0035464 -118.77206326 87.43896675 C-118.07090049 86.0281594 -117.36550627 84.619443 -116.65487576 83.21338081 C-114.90342918 79.74740542 -113.21624063 76.26363901 -111.60409451 72.73047066 C-97.99674187 42.9488106 -76.66225348 18.31672409 -45.68221951 6.24609566 C-30.75911852 0.91072871 -15.68309817 -0.05729645 0 0 Z " fill="#0084FA" transform="translate(1593.68221950531,133.75390434265137)"/>
<path d="M0 0 C1.84237693 -0.00148324 3.68475332 -0.00384459 5.52712816 -0.006993 C10.55866546 -0.01308081 15.59012083 -0.00682308 20.62165197 0.00156327 C26.1071847 0.0084729 31.5927097 0.00368227 37.07824409 0.00040829 C46.68164725 -0.00372771 56.28502556 -0.00047128 65.88842583 0.00768471 C80.16822174 0.01977848 94.44800264 0.02035747 108.72780268 0.01860073 C132.75126437 0.0157905 156.77471546 0.02263083 180.7981739 0.03463554 C204.58010345 0.04649111 228.36202847 0.05418785 252.14396095 0.05634117 C253.25290847 0.05644441 253.25290847 0.05644441 254.38425897 0.05654973 C261.13687327 0.05717615 267.88948757 0.05775153 274.64210188 0.05826568 C291.42635774 0.05954427 308.21061349 0.06146279 324.99486923 0.06381607 C325.75908334 0.06392271 326.52329746 0.06402934 327.31066957 0.06413921 C364.46128994 0.0693789 401.61190732 0.08199265 438.76252556 0.09521675 C451.65034292 0.09980018 464.53816029 0.10435096 477.42597771 0.10876656 C478.62497658 0.1091774 478.62497658 0.1091774 479.84819766 0.10959655 C517.02570261 0.12229097 554.20320807 0.12973791 591.38071462 0.13583615 C593.79509733 0.13623227 596.20948004 0.13663066 598.62386275 0.1370295 C614.6244607 0.13966913 630.62505867 0.14221842 646.62565664 0.14470722 C678.46131401 0.14965988 710.29697128 0.15514323 742.13262849 0.16099132 C743.64863431 0.1612698 745.16464014 0.16154791 746.68064596 0.16182564 C828.48290609 0.17681575 910.28516311 0.20098371 1049.10578728 0.24609566 C1047.62405473 4.82597105 1045.83144829 9.07657816 1043.66767693 13.36955452 C1043.32183823 14.06364632 1042.97599954 14.75773813 1042.61968088 15.47286302 C1041.46454311 17.78875551 1040.30372934 20.10175431 1039.14289665 22.41479683 C1038.3112093 24.07924505 1037.47986845 25.74386645 1036.64884758 27.40864754 C1034.39169842 31.92779138 1032.12955756 36.4444196 1029.86641312 40.96056342 C1027.49015761 45.70426845 1025.11813815 50.45009094 1022.74555779 55.19563484 C1018.75345198 63.17890962 1014.75825229 71.16062986 1010.76106071 79.14135933 C1006.16223692 88.32335447 1001.5675382 97.50740379 996.97526884 106.69267863 C992.06541321 116.51307027 987.15249606 126.331928 982.2387085 136.15035272 C980.8349937 138.95566731 979.43183551 141.76125969 978.02880669 144.56691742 C975.80468501 149.01414189 973.5784857 153.46032077 971.35080147 157.90576172 C970.54159768 159.52129401 969.73302951 161.13714489 968.92521095 162.75337029 C964.28680374 172.03228049 959.5482979 181.24987038 954.69940537 190.42062479 C951.08594996 197.26117181 947.57744138 204.14855619 944.11482048 211.06689644 C943.4844608 212.32296016 942.85395227 213.57894919 942.22331047 214.83487129 C940.5459295 218.1767877 938.87102237 221.51993709 937.19697785 224.86352587 C936.14424849 226.96601346 935.0910636 229.0682723 934.03775406 231.17046928 C930.72182458 237.78873925 927.40744629 244.40778243 924.09539157 251.02799237 C920.30845661 258.59737456 916.51628405 266.16410198 912.71959049 273.72859395 C909.75704824 279.63193087 906.79922395 285.53761673 903.84484547 291.44504344 C902.09211249 294.94947256 900.3375412 298.4529483 898.57798004 301.9539547 C888.91230705 321.08784244 888.91230705 321.08784244 880.54052544 340.81125069 C869.32661524 367.65799119 845.93366556 390.98694321 819.43000603 402.55468941 C807.66969344 407.36149439 795.21706091 409.41227263 782.55882883 409.37029415 C781.73056876 409.37157224 780.90230868 409.37285033 780.04894981 409.37416714 C777.27399428 409.37722937 774.49909571 409.37316853 771.72414207 409.36914349 C769.70582374 409.36988326 767.68750552 409.37106199 765.66918766 409.37263998 C760.10254249 409.37571313 754.53591554 409.37253045 748.96927173 409.36836185 C742.92103324 409.36493156 736.87279663 409.3672977 730.82455778 409.36893934 C720.21767214 409.37101495 709.61079273 409.36939881 699.00390816 409.36530113 C687.6226133 409.36092365 676.24132113 409.35872848 664.86002541 409.35920334 C663.78191564 409.35924638 663.78191564 409.35924638 662.68202587 409.35929028 C659.01719626 409.35944666 655.35236665 409.35963861 651.68753704 409.35984312 C625.15807355 409.3612508 598.62861246 409.35781915 572.0991497 409.35182571 C545.82488811 409.3459041 519.55062754 409.3420508 493.27636528 409.3409729 C492.46051406 409.34093849 491.64466283 409.34090408 490.80408885 409.34086862 C483.35259044 409.34055542 475.90109203 409.34026773 468.44959362 409.34001065 C449.92565667 409.33937124 431.40171974 409.3384119 412.87778282 409.33723545 C412.0342255 409.33718213 411.19066817 409.33712882 410.3215485 409.33707388 C369.28315635 409.3344521 328.24476488 409.32814443 287.20637321 409.32153511 C272.96438917 409.31924346 258.72240512 409.3169681 244.48042107 409.31476021 C243.59713683 409.31462326 242.7138526 409.31448631 241.80380218 409.31434521 C200.74531245 409.30800161 159.6868226 409.3042757 118.6283325 409.30122541 C115.96291975 409.30102735 113.29750699 409.30082816 110.63209424 409.30062873 C92.96832609 409.29930896 75.30455794 409.29803431 57.64078979 409.29678987 C22.49400726 409.29431335 -12.65277525 409.29157166 -47.79955774 409.28864783 C-49.47335482 409.28850859 -51.14715191 409.28836953 -52.82094899 409.28823066 C-128.1754487 409.28197725 -203.5299479 409.27263921 -278.8844471 409.2619648 C-279.59006607 409.26186486 -280.29568505 409.26176493 -281.02268641 409.26166196 C-316.31319521 409.25666146 -351.60370398 409.25148495 -386.89421272 409.24609566 C-385.72746792 405.68808939 -384.54623287 402.29960954 -382.86296272 398.95312691 C-382.46335335 398.15584175 -382.06374397 397.35855659 -381.65202522 396.53711128 C-381.2369471 395.71920113 -380.82186897 394.90129097 -380.39421272 394.05859566 C-379.81800179 392.90714058 -379.81800179 392.90714058 -379.23015022 391.73242378 C-376.28055989 385.87498261 -373.22890408 380.0729634 -370.16765022 374.27343941 C-365.46951736 365.37142143 -360.85978967 356.42632769 -356.27989388 347.4630146 C-350.03746447 335.24773929 -343.77321914 323.04528843 -337.40593147 310.89453316 C-332.89992822 302.28417597 -328.45932831 293.64054607 -324.01921272 284.99609566 C-316.91592678 271.1675879 -309.77699923 257.35821237 -302.61393929 243.56054878 C-299.59890024 237.74962175 -296.5896206 231.93571619 -293.58171272 226.12109566 C-293.27384834 225.5259919 -292.96598396 224.93088814 -292.64879036 224.31775093 C-287.89365392 215.12475568 -283.1515768 205.92507389 -278.41404915 196.72299385 C-276.27847078 192.57569897 -274.14125834 188.42924582 -272.00404549 184.28279305 C-269.96345453 180.32323004 -267.92578944 176.36217984 -265.89035225 172.39996529 C-264.93398843 170.53959634 -263.97608361 168.68003064 -263.01750374 166.82080269 C-261.85395772 164.5639909 -260.69278518 162.30595296 -259.53459358 160.04638863 C-254.72874377 150.74174377 -249.61808818 141.83759751 -243.26921272 133.49609566 C-242.49770882 132.4764875 -242.49770882 132.4764875 -241.71061897 131.4362812 C-227.35817481 112.65980963 -210.97576565 94.49520131 -192.89421272 79.24609566 C-192.01120491 78.47394722 -191.1281971 77.70179878 -190.21843147 76.90625191 C-149.47824256 41.4808694 -100.47323006 14.41812786 -47.20671272 3.99609566 C-46.43690071 3.84487251 -45.6670887 3.69364937 -44.87394905 3.5378437 C-29.94925535 0.81096528 -15.13561815 -0.0492778 0 0 Z " fill="#0BE0F9" transform="translate(387.8942127227783,1.7539043426513672)"/>
<path d="M0 0 C20.46 0 40.92 0 62 0 C74.48460692 13.39131021 74.48460692 13.39131021 76.19921875 19.75 C78.72096515 27.96651014 82.69320586 34.74788006 87.24923706 41.99203491 C89.32835525 45.32983507 91.3101021 48.72455621 93.3046875 52.11328125 C97.68691021 59.50681878 102.14799574 66.85111037 106.625 74.1875 C112.71653754 84.17038186 118.67440453 94.22403464 124.56506348 104.32659912 C130.08702229 113.79204555 135.71943617 123.18350788 141.42773438 132.53759766 C147.19037915 141.98311569 152.86515137 151.47773606 158.5 161 C164.44031075 171.03709232 170.4283432 181.0418 176.5 191 C182.97676218 201.62261838 189.35224248 212.30205121 195.68887329 223.00878906 C204.01529808 237.07346658 212.48400102 251.04941645 221 265 C223.66832407 262.59333485 225.28262452 260.01747845 227.046875 256.8984375 C227.63670166 255.86380371 228.22652832 254.82916992 228.83422852 253.76318359 C229.7825354 252.08603271 229.7825354 252.08603271 230.75 250.375 C232.10462181 247.99801975 233.46381322 245.62367405 234.82421875 243.25 C235.17109238 242.6442514 235.517966 242.03850281 235.87535095 241.41439819 C239.35566708 235.35180129 242.9489548 229.35901568 246.5625 223.375 C253.19305438 212.38020408 259.68029327 201.30747278 266.1328125 190.20751953 C269.53611221 184.36121311 272.95451049 178.52375974 276.375 172.6875 C276.73237244 172.07765259 277.08974487 171.46780518 277.45794678 170.83947754 C283.26490902 160.93277184 289.11157312 151.0501448 294.97338867 141.17578125 C299.90533533 132.86218846 304.80358379 124.52937248 309.6875 116.1875 C317.2708691 103.23531919 324.89724398 90.30902266 332.54296875 77.39355469 C339.58701426 65.49231154 346.60085682 53.57374345 353.58932495 41.63980103 C359.00005894 32.40048047 364.43064333 23.173231 369.890625 13.96289062 C370.61958984 12.7321582 370.61958984 12.7321582 371.36328125 11.4765625 C371.77876221 10.77611816 372.19424316 10.07567383 372.62231445 9.35400391 C374.43895622 6.2499706 376.21560887 3.12268448 378 0 C398.79 0 419.58 0 441 0 C441 133.32 441 266.64 441 404 C417.57 404 394.14 404 370 404 C369.84718897 392.04172429 369.69985433 380.08345475 369.5625 368.125 C369.55147877 367.16593876 369.54045753 366.20687752 369.52910233 365.21875381 C368.97809043 316.87636305 368.71208443 268.53208315 368.4375 220.1875 C368.43195052 219.21142194 368.42640103 218.23534388 368.42068338 217.22968769 C368.27629929 191.81981436 368.1360478 166.40991931 368 141 C367.2933168 142.20924385 367.2933168 142.20924385 366.57235718 143.44291687 C364.78141294 146.50626174 362.98945706 149.56901047 361.1968689 152.63139343 C360.42918545 153.94331934 359.66187695 155.25546475 358.89498901 156.56785583 C353.5567669 165.70248278 348.13691294 174.78148367 342.625 183.8125 C342.19466021 184.51872403 341.76432041 185.22494806 341.32094002 185.95257282 C340.34207642 187.55853796 339.36248044 189.16405665 338.3828125 190.76953125 C333.69135407 198.475171 329.0942856 206.23617119 324.5 214 C318.21976973 224.61143998 311.877073 235.18099555 305.45800781 245.70898438 C299.32464586 255.77251746 293.29583885 265.89556875 287.29400635 276.03799438 C281.7169483 285.46011454 276.07883982 294.84163097 270.375 304.1875 C263.71671698 315.09886096 257.20928422 326.09110047 250.79443359 337.1472168 C249.49139199 339.38636988 248.17067751 341.61535328 246.83056641 343.83251953 C244.95652263 346.95188337 244.95652263 346.95188337 243.55615234 350.21044922 C241.97079252 353.43301909 240.67339681 355.59027535 238 358 C232.28381529 359.88546937 226.85681016 360.09353526 220.875 360 C220.07910461 359.99705933 219.28320923 359.99411865 218.4631958 359.99108887 C212.15396564 359.88914411 205.82196521 359.77997657 200.37109375 356.34179688 C196.02143748 351.74568891 193.79683186 346.06076 191.44238281 340.26416016 C189.08980362 334.94019539 185.94723698 330.10397218 182.84933472 325.19210815 C180.99844978 322.23797802 179.20322441 319.25039998 177.40234375 316.265625 C176.66935951 315.05518624 175.93612327 313.84490006 175.20263672 312.63476562 C174.83902039 312.03462646 174.47540405 311.4344873 174.10076904 310.81616211 C170.84111966 305.43805693 167.57641776 300.06301532 164.3125 294.6875 C163.59887687 293.51204432 162.88525382 292.33658859 162.17163086 291.16113281 C156.02294142 281.03404635 149.86395191 270.91324725 143.70166016 260.79443359 C140.80040563 256.03004919 137.90026793 251.26498502 135 246.5 C133.83333849 244.58333019 132.66667183 242.66666352 131.5 240.75 C124.5 229.25 124.5 229.25 122.75048828 226.37573242 C121.5822766 224.45657407 120.41398216 222.5374661 119.24560547 220.6184082 C116.35190114 215.86527121 113.45957955 211.1113045 110.5703125 206.35546875 C103.73037791 195.10060549 96.85634927 183.86744525 89.94384766 172.65698242 C84.27030779 163.45328956 78.63805291 154.22590476 73 145 C72.67 230.47 72.34 315.94 72 404 C48.24 404 24.48 404 0 404 C0 270.68 0 137.36 0 0 Z " fill="#FFFFFF" transform="translate(3298,955)"/>
<path d="M0 0 C20.46 0 40.92 0 62 0 C72.19642075 11.32935639 72.19642075 11.32935639 76.375 16.8125 C79.97853405 21.47109989 83.66686645 26.02846605 87.5 30.5 C91.76899579 35.48403363 95.84883363 40.58812964 99.875 45.76953125 C102.99147918 49.7625202 106.20533621 53.65310563 109.5 57.5 C113.76875118 62.48425208 117.84882342 67.58811651 121.875 72.76953125 C124.99147918 76.7625202 128.20533621 80.65310563 131.5 84.5 C135.76875118 89.48425208 139.84882342 94.58811651 143.875 99.76953125 C146.99147918 103.7625202 150.20533621 107.65310563 153.5 111.5 C157.76875118 116.48425208 161.84882342 121.58811651 165.875 126.76953125 C168.99147918 130.7625202 172.20533621 134.65310563 175.5 138.5 C179.76875118 143.48425208 183.84882342 148.58811651 187.875 153.76953125 C190.99147918 157.7625202 194.20533621 161.65310563 197.5 165.5 C201.76875118 170.48425208 205.84882342 175.58811651 209.875 180.76953125 C212.99147918 184.7625202 216.20533621 188.65310563 219.5 192.5 C223.28188195 196.91577693 226.93267103 201.40917906 230.5 206 C234.57104431 211.23824648 238.7734098 216.33780962 243.08154297 221.38232422 C246.49083126 225.37920978 249.79403458 229.44717693 253.05859375 233.5625 C255.08054699 236.10112942 257.12972269 238.6153333 259.1875 241.125 C263.02524388 245.80891311 266.86088267 250.49448902 270.6875 255.1875 C271.22205811 255.84057129 271.75661621 256.49364258 272.30737305 257.16650391 C275.99999144 261.69993647 279.48541105 266.3138814 283 271 C283.33 181.57 283.66 92.14 284 0 C308.75 0 333.5 0 359 0 C359 133.32 359 266.64 359 404 C338.21 404 317.42 404 296 404 C283.77777778 389.55555556 283.77777778 389.55555556 279.5 384 C275.93563949 379.40696402 272.28176418 374.91563943 268.5 370.5 C264.23124882 365.51574792 260.15117658 360.41188349 256.125 355.23046875 C253.00851509 351.23747246 249.79452281 347.34702042 246.5 343.5 C242.78762154 339.162441 239.19281036 334.75655376 235.6875 330.25 C229.79471577 322.6752413 223.68526195 315.28565238 217.56591797 307.89355469 C211.26101059 300.26947274 205.0326576 292.58250348 198.79663086 284.90209961 C195.70508572 281.09534964 192.60787887 277.29344038 189.5 273.5 C185.25045829 268.31305939 181.02344227 263.10800115 176.796875 257.90234375 C173.70520667 254.09554653 170.60795137 250.29352888 167.5 246.5 C161.07234773 238.65310335 154.6864151 230.77222638 148.29296875 222.89746094 C142.3327439 215.5567932 136.36749562 208.22061966 130.375 200.90625 C126.83919565 196.57954205 123.31890935 192.24026221 119.796875 187.90234375 C116.70520667 184.09554653 113.60795137 180.29352888 110.5 176.5 C106.25408394 171.31748481 102.03039839 166.11708865 97.80786133 160.91552734 C93.98332024 156.2057226 90.14568059 151.5071166 86.29296875 146.8203125 C82.8357863 142.56803698 79.42353163 138.27941454 76 134 C75.67 223.1 75.34 312.2 75 404 C50.25 404 25.5 404 0 404 C0 270.68 0 137.36 0 0 Z " fill="#FFFFFF" transform="translate(4418,955)"/>
<path d="M0 0 C0.92158905 0.00215515 1.8431781 0.0043103 2.79269409 0.00653076 C63.28849035 0.23302097 118.73514557 21.65467736 161.875 64.375 C199.82244605 102.6621245 218.13360749 154.42550972 218.53125 207.84375 C218.00002839 266.27812699 196.23764706 317.92828101 154.88671875 358.8359375 C143.86924694 369.09422218 131.44745822 377.86927029 118.34277344 385.24023438 C117.07318126 385.95474601 115.80815088 386.67742491 114.54785156 387.40820312 C80.2998117 407.21303597 41.54785133 415.5320546 2.3125 415.5625 C1.52470154 415.56317474 0.73690308 415.56384949 -0.07476807 415.56454468 C-50.46008594 415.49649938 -99.25794747 400.98451796 -139.5625 370.3125 C-140.86767578 369.34376953 -140.86767578 369.34376953 -142.19921875 368.35546875 C-156.32531505 357.38773395 -169.37457707 344.01221737 -179.5625 329.3125 C-180.16964844 328.45591797 -180.16964844 328.45591797 -180.7890625 327.58203125 C-197.2899733 304.2479212 -207.91131237 278.30942536 -213.5625 250.3125 C-213.74039063 249.43319824 -213.91828125 248.55389648 -214.1015625 247.64794922 C-219.07638983 221.47581696 -218.78370982 191.40827112 -213.5625 165.3125 C-213.39621094 164.47879883 -213.22992187 163.64509766 -213.05859375 162.78613281 C-205.25646782 125.3792735 -187.05126356 91.719949 -160.5625 64.3125 C-159.69109375 63.38953125 -158.8196875 62.4665625 -157.921875 61.515625 C-151.00591537 54.35700012 -143.52940961 48.25355224 -135.5625 42.3125 C-134.73234375 41.68730469 -133.9021875 41.06210937 -133.046875 40.41796875 C-94.36737269 12.32928255 -47.3809663 -0.20013419 0 0 Z M-91.5625 98.3125 C-92.07264648 98.74288574 -92.58279297 99.17327148 -93.10839844 99.61669922 C-120.41814237 122.96938767 -136.82596274 155.65159867 -140.33544922 191.33447266 C-142.52728994 220.0829384 -139.08485789 248.61141548 -125.5625 274.3125 C-125.0358374 275.32256104 -125.0358374 275.32256104 -124.49853516 276.35302734 C-119.93358178 285.02058366 -115.0803182 292.94398767 -108.5625 300.3125 C-107.81871094 301.16457031 -107.07492188 302.01664063 -106.30859375 302.89453125 C-104.09080407 305.39751893 -101.83590799 307.86005072 -99.5625 310.3125 C-99.02367188 310.91707031 -98.48484375 311.52164063 -97.9296875 312.14453125 C-74.84221076 336.91426132 -38.27937392 347.71723204 -5.44873047 349.23095703 C33.10826599 350.32028513 70.32940409 338.77509928 98.8125 312.19140625 C106.77579081 304.58492276 113.55262928 296.6195646 119.4375 287.3125 C119.82244629 286.70744629 120.20739258 286.10239258 120.60400391 285.47900391 C140.93655656 252.93158719 147.05216469 211.36216604 138.6328125 173.98828125 C135.60438264 161.78782282 131.03972715 150.52948725 125.4375 139.3125 C124.95410156 138.33410156 124.47070312 137.35570312 123.97265625 136.34765625 C118.14289806 125.09186274 110.0919397 115.49903906 101.4375 106.3125 C100.83808594 105.64863281 100.23867188 104.98476562 99.62109375 104.30078125 C77.9631069 81.23946912 44.57013773 68.40078226 13.375 66.40234375 C12.405625 66.37269531 11.43625 66.34304688 10.4375 66.3125 C9.77492188 66.29203613 9.11234375 66.27157227 8.4296875 66.25048828 C-28.17005114 65.28607879 -63.2343266 74.36395214 -91.5625 98.3125 Z " fill="#FFFFFF" transform="translate(4078.5625,949.6875)"/>
<path d="M0 0 C97.35 0 194.7 0 295 0 C295 21.12 295 42.24 295 64 C222.73 64 150.46 64 76 64 C76 98.32 76 132.64 76 168 C140.02 168 204.04 168 270 168 C270 188.46 270 208.92 270 230 C205.98 230 141.96 230 76 230 C76 266.63 76 303.26 76 341 C150.91 341 225.82 341 303 341 C303 361.79 303 382.58 303 404 C203.01 404 103.02 404 0 404 C0 270.68 0 137.36 0 0 Z " fill="#FFFFFF" transform="translate(1853,955)"/>
<path d="M0 0 C1.31238144 0.00222061 2.62476288 0.00444122 3.97691345 0.00672913 C4.6988237 0.0065831 5.42073395 0.00643707 6.16452026 0.00628662 C8.56156879 0.00698583 10.95854054 0.01477857 13.35557556 0.02259827 C15.0132442 0.02446242 16.67091338 0.02588633 18.32858276 0.02688599 C22.69996145 0.03071139 27.07130712 0.04054186 31.44267273 0.05158997 C35.89996392 0.0618036 40.35726043 0.0663835 44.81455994 0.07142639 C53.56652824 0.08216412 62.31846968 0.0992408 71.07041931 0.12025452 C78.78728448 16.64381653 78.78728448 16.64381653 81.91026306 23.41322327 C82.23394363 24.11482071 82.55762421 24.81641815 82.89111328 25.53927612 C83.93095901 27.79501768 84.9696837 30.05127145 86.00791931 32.30775452 C86.37280457 33.10060852 86.73768982 33.89346252 87.1136322 34.71034241 C92.86223706 47.21178907 98.49228029 59.76195238 104.05467224 72.34718323 C109.19121066 83.96329119 114.43798086 95.52453817 119.75791931 107.05775452 C126.07965093 120.76491357 132.31117491 134.50755221 138.46472168 148.29127502 C142.19208061 156.63737562 145.94420462 164.97235601 149.69541931 173.30775452 C150.07416199 174.14942169 150.45290466 174.99108887 150.84312439 175.85826111 C159.88945458 195.95890658 168.97898564 216.03998005 178.07041931 236.12025452 C181.25845542 243.1616786 184.44614377 250.20325983 187.63291931 257.24525452 C188.026315 258.1145459 188.41971069 258.98383728 188.82502747 259.87947083 C194.96325246 273.44496538 201.07981675 287.02010104 207.18544006 300.60029602 C212.56693322 312.56914661 217.96531114 324.53023192 223.37760925 336.48518372 C225.73965186 341.70323956 228.09989517 346.92210963 230.46028137 352.14091492 C232.51929012 356.69296224 234.57953258 361.24444565 236.64170837 365.7950592 C238.75951879 370.46884427 240.8739693 375.14413647 242.9861908 379.82044983 C243.7862606 381.59019842 244.58751213 383.3594133 245.38999939 385.12806702 C246.49750669 387.5693892 247.60085813 390.01254839 248.70323181 392.45619202 C249.03142914 393.17704987 249.35962646 393.89790771 249.69776917 394.64060974 C251.124074 397.8129076 252.22295469 400.73039602 253.07041931 404.12025452 C227.00041931 404.12025452 200.93041931 404.12025452 174.07041931 404.12025452 C170.07892735 396.13727059 166.29877543 388.25148284 162.83995056 380.04994202 C162.36401962 378.92999847 161.88808868 377.81005493 161.3977356 376.65617371 C159.88922238 373.10403794 158.38597728 369.54970153 156.88291931 365.99525452 C155.89563624 363.66828429 154.9080082 361.34146039 153.92002869 359.01478577 C150.96501327 352.05211138 148.01717309 345.08643069 145.07041931 338.12025452 C141.44041931 329.54025452 137.81041931 320.96025452 134.07041931 312.12025452 C67.74041931 312.12025452 1.41041931 312.12025452 -66.92958069 312.12025452 C-82.34607635 348.32158228 -82.34607635 348.32158228 -97.67958069 384.55775452 C-100.40208069 391.01337952 -103.12458069 397.46900452 -105.92958069 404.12025452 C-131.99958069 404.12025452 -158.06958069 404.12025452 -184.92958069 404.12025452 C-179.05653031 390.61223866 -173.18049671 377.13081563 -167.08555603 363.72541809 C-165.03107113 359.20640827 -162.98286513 354.68455065 -160.93348694 350.16322327 C-160.51547318 349.24144287 -160.09745941 348.31966248 -159.66677856 347.36994934 C-155.38230191 337.91976917 -151.12237123 328.45860496 -146.86708069 318.99525452 C-146.12164075 317.33778257 -145.37619804 315.68031187 -144.63075256 314.02284241 C-143.14149314 310.71131148 -141.65243338 307.39969084 -140.16346741 304.08802795 C-136.79595103 296.59864206 -133.42565181 289.11050842 -130.05558777 281.62226868 C-128.1801405 277.45498083 -126.30486943 273.2876137 -124.42958069 269.12025452 C-123.67958153 267.45358747 -122.92958153 265.7869208 -122.17958069 264.12025452 C-121.80833069 263.29525452 -121.43708069 262.47025452 -121.05458069 261.62025452 C-95.92958069 205.78692118 -70.80458069 149.95358785 -45.67958069 94.12025452 C-45.30838104 93.2953653 -44.9371814 92.47047607 -44.55473328 91.62059021 C-43.80422803 89.95280304 -43.0537194 88.2850174 -42.3032074 86.61723328 C-40.43590993 82.46772271 -38.56867006 78.31818626 -36.70155334 74.16859436 C-33.23502766 66.46454003 -29.76796687 58.760728 -26.29890442 51.05781555 C-24.68762042 47.47993217 -23.07665614 43.90190488 -21.4657135 40.3238678 C-20.70903587 38.64345796 -19.95220738 36.96311605 -19.19520569 35.28285217 C-18.13490734 32.9293548 -17.07511084 30.57563218 -16.01551819 28.22181702 C-15.67921387 27.47522827 -15.34290955 26.72863953 -14.99641418 25.95942688 C-13.2051056 21.97719434 -11.42718576 17.98946067 -9.66493225 13.99427795 C-9.29679413 13.16076813 -8.92865601 12.3272583 -8.54936218 11.4684906 C-7.84267689 9.86656018 -7.13798283 8.26374948 -6.43553162 6.65995789 C-3.56156698 0.14619652 -3.56156698 0.14619652 0 0 Z M33.07041931 77.12025452 C25.74812006 93.29907076 18.69930675 109.58752317 11.75791931 125.93275452 C11.12836838 127.41518646 11.12836838 127.41518646 10.48609924 128.92756653 C8.27146128 134.14395296 6.05836742 139.36099317 3.84580994 144.57826233 C-0.44056876 154.68414562 -4.73666128 164.78589476 -9.0358429 174.88633728 C-10.00381848 177.16058697 -10.97155267 179.43493941 -11.93904114 181.70939636 C-17.1273007 193.9046517 -22.33701337 206.08995211 -27.60926819 218.24916077 C-28.05803818 219.28473618 -28.50680817 220.32031158 -28.96917725 221.38726807 C-31.08864678 226.27615637 -33.21262137 231.16301094 -35.34388733 236.04676819 C-36.08999167 237.76393201 -36.83600939 239.48113346 -37.58192444 241.19837952 C-37.92444244 241.9789119 -38.26696045 242.75944427 -38.61985779 243.56362915 C-40.32733225 247.20703215 -40.32733225 247.20703215 -40.92958069 251.12025452 C8.24041931 251.12025452 57.41041931 251.12025452 108.07041931 251.12025452 C104.89238047 242.85735352 101.67958494 234.6877546 98.17588806 226.56947327 C97.7157431 225.49768829 97.25559814 224.42590332 96.7815094 223.32164001 C95.27589059 219.81604212 93.76689091 216.31191035 92.25791931 212.80775452 C91.18860085 210.32028004 90.12008199 207.83246242 89.05162048 205.34461975 C87.1119523 200.82879284 85.17152208 196.31329499 83.2300806 191.79823017 C78.26763233 180.25707506 73.32014015 168.70952263 68.37330627 157.16166687 C65.90449766 151.39888914 63.43467564 145.63654578 60.96495056 139.87416077 C59.98789487 137.59437772 59.01084409 135.31459256 58.03379822 133.0348053 C57.54816406 131.90165894 57.06252991 130.76851257 56.56217957 129.60102844 C49.06492615 112.10743713 41.56767273 94.61384583 34.07041931 77.12025452 C33.74041931 77.12025452 33.41041931 77.12025452 33.07041931 77.12025452 Z " fill="#FFFFFF" transform="translate(5281.929580688477,954.8797454833984)"/>
<path d="M0 0 C1.47297546 -0.00101212 1.47297546 -0.00101212 2.97570801 -0.00204468 C18.15134315 0.0145064 32.9042337 0.55078532 47.875 3.25 C48.85162598 3.42160645 49.82825195 3.59321289 50.83447266 3.77001953 C79.87367941 9.00859318 113.50385269 17.17327632 136.875 36.25 C134.10486208 43.22625033 131.32921229 50.20028924 128.54980469 57.17285156 C127.60583912 59.54279389 126.66311469 61.91323098 125.72167969 64.28417969 C124.36462857 67.70119424 123.00305518 71.11637721 121.640625 74.53125 C121.22379456 75.58364868 120.80696411 76.63604736 120.37750244 77.72033691 C118.11452235 83.37864152 115.69078064 88.84460584 112.875 94.25 C108.70758022 93.02618275 105.13286628 91.39086842 101.37207031 89.28051758 C78.15105335 76.25241501 52.07858657 69.17082901 25.875 65.25 C25.18768799 65.1454248 24.50037598 65.04084961 23.79223633 64.93310547 C16.25627469 63.93921552 8.65085623 64.00628961 1.0625 64 C0.33056427 63.99932526 -0.40137146 63.99865051 -1.15548706 63.99795532 C-26.78934168 64.03540869 -53.72836463 67.48220381 -73.0390625 86.07421875 C-81.81735748 95.23060508 -85.24294179 106.5965311 -85.125 119.25 C-84.44474568 129.54065574 -80.59242689 139.42479196 -73 146.5625 C-56.60700672 159.69860719 -36.15869044 164.82141752 -16.1875 170 C-14.23152712 170.51549774 -12.27572008 171.03162508 -10.32006836 171.54833984 C-0.39115279 174.16021738 9.55715185 176.68367995 19.53125 179.1171875 C115.16549072 202.45633188 115.16549072 202.45633188 140.125 241.625 C153.93634312 265.19197436 157.40003569 294.93468777 150.64160156 321.45458984 C142.69699475 349.5979211 126.0002522 373.90692041 100.875 389.25 C100.25222168 389.63140137 99.62944336 390.01280273 98.98779297 390.40576172 C66.33754988 410.12602062 28.97240774 415.47302518 -8.625 415.5 C-9.47749329 415.50067474 -10.32998657 415.50134949 -11.20831299 415.50204468 C-35.61976138 415.47160079 -59.33104138 412.81532611 -83.125 407.25 C-84.05328613 407.03504883 -84.98157227 406.82009766 -85.93798828 406.59863281 C-114.03471353 399.93195106 -148.22560068 388.14939932 -169.125 367.25 C-168.80446269 362.3510159 -166.32025354 357.9018944 -164.30078125 353.50390625 C-163.91689743 352.65634262 -163.53301361 351.80877899 -163.13749695 350.93553162 C-161.90906837 348.22559582 -160.67361825 345.51893569 -159.4375 342.8125 C-157.82723545 339.27312888 -156.2198405 335.73246057 -154.61328125 332.19140625 C-154.22560577 331.33809723 -153.8379303 330.48478821 -153.43850708 329.60562134 C-150.23163024 322.52950276 -147.13978911 315.41003074 -144.125 308.25 C-139.83840078 309.87378045 -136.35369524 312.06170823 -132.625 314.6875 C-110.01399747 330.08276634 -84.6249178 339.91830345 -58.125 346.25 C-57.42971191 346.41725586 -56.73442383 346.58451172 -56.01806641 346.75683594 C-20.75194917 355.02858601 24.37379987 356.31884458 56.68359375 337.625 C66.85341984 330.93799107 73.21187606 322.89967743 76.875 311.25 C79.08696106 300.17610579 78.29796378 289.34004144 72.25 279.5625 C52.68244776 252.65711567 10.14060917 247.3410002 -20.125 240.25 C-120.25862333 216.78151287 -120.25862333 216.78151287 -147.12890625 175.61328125 C-155.81876056 160.97147193 -160.52337755 145.34610467 -161.125 128.25 C-161.1765625 127.24710938 -161.228125 126.24421875 -161.28125 125.2109375 C-162.14496442 94.47709922 -151.39661138 66.2703403 -130.60302734 43.73608398 C-104.89757132 16.91281033 -67.9502744 5.8046364 -32.125 1.25 C-31.31853027 1.1454248 -30.51206055 1.04084961 -29.68115234 0.93310547 C-19.83589653 -0.15132763 -9.89204457 0.0061016 0 0 Z " fill="#FFFFFF" transform="translate(2417.125,949.75)"/>
<path d="M0 0 C1.55780265 0.00056958 1.55780265 0.00056958 3.14707607 0.00115067 C4.93704457 -0.00183591 4.93704457 -0.00183591 6.76317406 -0.00488281 C8.10437776 -0.00202923 9.44558127 0.00091638 10.78678459 0.00394398 C12.19832957 0.0035084 13.60987446 0.00263374 15.02141893 0.00135481 C18.91850805 -0.0008928 22.81556995 0.00313475 26.7126556 0.00813287 C30.90831459 0.0124334 35.10397192 0.01099124 39.29963249 0.0102306 C46.57496644 0.00970511 53.85029146 0.01285451 61.12562317 0.01846844 C71.64465642 0.02658008 82.16368533 0.02919831 92.68272137 0.03045643 C109.7473137 0.03264748 126.81190127 0.039309 143.87649101 0.04875904 C160.45754545 0.05793179 177.03859861 0.0650133 193.61965507 0.06926686 C195.15158972 0.06966094 195.15158972 0.06966094 196.71447254 0.07006299 C201.83775427 0.07136798 206.961036 0.0726317 212.08431774 0.07387489 C254.61717856 0.08424915 297.15003056 0.10268834 339.68288749 0.1241985 C339.68288749 21.5741985 339.68288749 43.0241985 339.68288749 65.1241985 C295.79288749 65.1241985 251.90288749 65.1241985 206.68288749 65.1241985 C206.68288749 176.9941985 206.68288749 288.8641985 206.68288749 404.1241985 C181.60288749 404.1241985 156.52288749 404.1241985 130.68288749 404.1241985 C130.68288749 292.2541985 130.68288749 180.3841985 130.68288749 65.1241985 C86.46288749 65.1241985 42.24288749 65.1241985 -3.31711251 65.1241985 C-3.31711251 0.17779904 -3.31711251 0.17779904 0 0 Z " fill="#FFFFFF" transform="translate(2632.317112505436,954.8758015036583)"/>
<path d="M0 0 C112.86 0 225.72 0 342 0 C342 21.45 342 42.9 342 65 C298.11 65 254.22 65 209 65 C209 176.87 209 288.74 209 404 C183.92 404 158.84 404 133 404 C133 292.13 133 180.26 133 65 C89.11 65 45.22 65 0 65 C0 43.55 0 22.1 0 0 Z " fill="#FFFFFF" transform="translate(1412,955)"/>
<path d="M0 0 C24.75 0 49.5 0 75 0 C75 112.2 75 224.4 75 340 C144.63 340 214.26 340 286 340 C286 361.12 286 382.24 286 404 C191.62 404 97.24 404 0 404 C0 270.68 0 137.36 0 0 Z " fill="#FFFFFF" transform="translate(5629,955)"/>
<path d="M0 0 C25.08 0 50.16 0 76 0 C76 133.32 76 266.64 76 404 C50.92 404 25.84 404 0 404 C0 270.68 0 137.36 0 0 Z " fill="#FFFFFF" transform="translate(4927,955)"/>
<path d="M0 0 C24.75 0 49.5 0 75 0 C75 133.32 75 266.64 75 404 C50.25 404 25.5 404 0 404 C0 270.68 0 137.36 0 0 Z " fill="#FFFFFF" transform="translate(3071,955)"/>
<path d="M0 0 C1.63764004 -0.00148285 3.27527948 -0.0038438 4.91291717 -0.006993 C9.38998444 -0.01308697 13.8669598 -0.00681785 18.34402017 0.00156327 C23.22327928 0.00846768 28.10252963 0.00368325 32.9817906 0.00040829 C41.52537213 -0.00372932 50.06892573 -0.00046851 58.61250401 0.00768471 C71.31641049 0.01977442 84.02029943 0.02035449 96.72421062 0.01860073 C118.09609843 0.01597515 139.46797385 0.02264731 160.83985806 0.03463554 C181.99785454 0.04647336 203.15584586 0.0541682 224.31384563 0.05634117 C226.28784315 0.05654739 226.28784315 0.05654739 228.30171941 0.05675778 C233.6435496 0.05729862 238.98537978 0.05780845 244.32720997 0.05826568 C259.25796106 0.05954429 274.18871202 0.06146283 289.11946297 0.06381607 C289.79929535 0.06392271 290.47912774 0.06402934 291.17956111 0.06413921 C324.23076311 0.06937931 357.28196175 0.08199323 390.33316135 0.09521675 C401.79932751 0.09980017 413.26549367 0.10435094 424.73165989 0.10876656 C425.79839284 0.1091774 425.79839284 0.1091774 426.88667595 0.10959655 C459.96097618 0.12229021 493.035277 0.12973766 526.10957903 0.13583615 C528.25740523 0.13623227 530.40523143 0.13663066 532.55305763 0.1370295 C546.78709325 0.13966912 561.02112888 0.14221841 575.25516452 0.14470722 C603.5761436 0.14965993 631.89712257 0.15514328 660.21810148 0.16099132 C661.56674915 0.1612698 662.91539681 0.16154791 664.26404448 0.16182564 C753.948626 0.18029958 843.63320369 0.2120747 933.31778049 0.24609566 C932.65008797 3.82551768 931.77266049 6.7098328 930.13884068 9.97146797 C929.68072498 10.89326851 929.22260929 11.81506905 928.75061131 12.76480293 C928.24627567 13.76425941 927.74194004 14.7637159 927.22232151 15.79345894 C926.69203846 16.85606941 926.16175541 17.91867989 925.61540318 19.01349068 C924.16054727 21.92569457 922.70037026 24.83515284 921.23767304 27.74342394 C919.69810902 30.80744457 918.16508554 33.87473481 916.6312418 36.94162178 C914.04679738 42.10681681 911.45786001 47.26973882 908.8658762 52.43115425 C905.56887434 58.99652448 902.27910617 65.56548994 898.99176216 72.13570023 C896.13839374 77.83840633 893.2816355 83.53941308 890.42435813 89.24016142 C889.52109021 91.0426545 888.61825778 92.84536518 887.71548748 94.64810753 C877.03460822 115.96610611 877.03460822 115.96610611 871.49820042 126.37207222 C864.91718279 138.76027583 858.72707809 151.34855728 852.4801569 163.90730858 C850.19559594 168.49988614 847.90686191 173.09037642 845.61740208 177.68051338 C839.11592556 190.71659093 832.61805033 203.75445543 826.12832737 216.79638863 C822.52600199 224.03563731 818.91934274 231.27270958 815.30791497 238.50742185 C813.03506958 243.06115941 810.76747486 247.61745905 808.50383806 252.17578053 C807.09362796 255.01229206 805.6783195 257.84623668 804.26159382 260.67949867 C803.61050896 261.98407332 802.96146175 263.28966742 802.31470966 264.59639549 C793.67145776 282.05209632 782.15467982 295.77965132 768.41104221 309.41357613 C766.8111522 311.00267926 765.22233635 312.60229941 763.63418674 314.20312691 C757.18214704 320.66361534 750.46815021 326.5548676 743.31778049 332.24609566 C742.13911147 333.24616917 740.96518136 334.25188279 739.79824924 335.26562691 C675.6435339 390.14003923 594.83404496 415.50336556 511.47416424 415.35595913 C507.83217742 415.35066459 504.19019055 415.35132474 500.54820055 415.35120493 C494.17954283 415.35020285 487.8108963 415.34552691 481.44224262 415.33838463 C471.97147625 415.32779375 462.50071318 415.32306813 453.02994184 415.31959398 C437.09030702 415.31362321 421.15067801 415.30327307 405.21104717 415.29069519 C382.43226504 415.27282621 359.65348363 415.26345124 336.87469607 415.25580454 C327.72461523 415.25269572 318.57453448 415.2493135 309.42445374 415.24592876 C308.40800677 415.24555399 307.3915598 415.24517922 306.34431141 415.2447931 C282.1711601 415.23582828 257.99801029 415.22416613 233.82486057 415.21167183 C232.76769531 415.21112742 231.71053004 415.21058302 230.62132946 415.21002212 C205.95388157 415.19729642 181.28643483 415.18328338 156.61898899 415.16705513 C155.02718639 415.16600935 155.02718639 415.16600935 153.40322617 415.16494244 C148.05188109 415.1614247 142.70053602 415.15789788 137.34919094 415.15437055 C136.29152467 415.15367377 135.2338584 415.15297699 134.14414163 415.15225909 C132.00934379 415.15085234 129.87454594 415.14944408 127.7397481 415.14803429 C92.45102787 415.12477245 57.16230953 415.10832578 21.87358268 415.09935769 C16.88812338 415.09808118 11.90266411 415.09671242 6.91720486 415.09527969 C5.44555632 415.09485767 5.44555632 415.09485767 3.94417752 415.09442713 C-11.82595931 415.08967603 -27.59608215 415.07752172 -43.36621209 415.06239279 C-59.2187456 415.04730066 -75.07126961 415.03931561 -90.92381041 415.0386061 C-100.33383331 415.03795373 -109.74381354 415.03170447 -119.15382574 415.01736378 C-125.44864966 415.00832162 -131.74344861 415.00662712 -138.03827758 415.0107562 C-141.61855711 415.01289571 -145.19875809 415.01196995 -148.77902614 415.00200807 C-167.6141741 414.95240996 -185.81749156 415.34812646 -204.18221951 419.93359566 C-205.24045925 420.19414742 -206.298699 420.45469917 -207.38900661 420.72314644 C-239.78534156 428.99319517 -267.63673607 446.3920551 -291.68221951 469.24609566 C-292.31386013 469.82488472 -292.94550076 470.40367378 -293.59628201 471.00000191 C-312.85259118 489.2067966 -325.74401621 514.48454886 -336.85385036 538.13086128 C-342.61746313 550.34856624 -348.73072975 562.39303936 -354.80673122 574.45752144 C-359.18655419 583.16866229 -363.49171392 591.90687282 -367.669631 600.71673775 C-373.70184503 613.37582531 -379.94935655 625.92430733 -386.22565448 638.46369028 C-387.85561533 641.72130364 -389.48322839 644.98008993 -391.11117458 648.2387104 C-394.2830402 654.58684088 -397.45702115 660.93391131 -400.63181467 667.28057793 C-403.21560863 672.44588926 -405.79860381 677.61159932 -408.38105488 682.77758217 C-408.75135103 683.5183277 -409.12164718 684.25907323 -409.50316442 685.0222656 C-410.255847 686.52795054 -411.0085278 688.03363636 -411.76120686 689.53932306 C-418.78476114 703.5892691 -425.81074697 717.63799804 -432.8375942 731.68629739 C-438.84492361 743.69648639 -444.85015131 755.70772432 -450.85385036 767.71972847 C-457.85742353 781.73224556 -464.86231363 795.74410305 -471.8692593 809.75493407 C-472.61857449 811.25324596 -473.36788803 812.75155867 -474.1171999 814.24987221 C-474.4857028 814.98672373 -474.8542057 815.72357526 -475.23387535 816.48275562 C-477.809882 821.63391149 -480.38497009 826.78552591 -482.95968723 831.93732643 C-486.10314828 838.22707449 -489.24806858 844.51609042 -492.39477272 850.80421665 C-493.99501689 854.00210584 -495.59466313 857.20028986 -497.19252491 860.39937019 C-503.12032798 872.26642865 -509.08076983 884.10788663 -515.29378837 895.82858902 C-518.9425324 902.71363609 -522.4563745 909.65960023 -525.93270779 916.63354683 C-526.59097244 917.95035973 -527.24941567 919.26708337 -527.90801907 920.58372688 C-529.66176464 924.09093632 -531.41307575 927.59935584 -533.16388464 931.10803199 C-535.01641224 934.81944753 -536.87128908 938.52968871 -538.72589016 942.24006844 C-542.23090409 949.25318061 -545.73388386 956.26730667 -549.23609149 963.2818206 C-553.19687071 971.21455645 -557.15991671 979.14615907 -561.12316442 987.07766187 C-565.97114984 996.77981702 -570.8187757 1006.48215158 -575.6646719 1016.18535042 C-576.17599008 1017.20917987 -576.17599008 1017.20917987 -576.69763792 1018.25369275 C-578.33047717 1021.52325437 -579.96317946 1024.7928843 -581.59564686 1028.06263161 C-584.16403415 1033.20665309 -586.7330818 1038.35032723 -589.31002712 1043.49006844 C-589.68417688 1044.23664868 -590.05832664 1044.98322893 -590.44381428 1045.75243282 C-591.36189787 1047.58356221 -592.28098225 1049.41418974 -593.20019436 1051.24475288 C-595.09772743 1055.08756701 -596.89621762 1058.97206397 -598.6863699 1062.86572456 C-606.45019924 1079.64703705 -615.97075151 1094.9422933 -627.68221951 1109.24609566 C-628.11357204 1109.77364449 -628.54492458 1110.30119331 -628.98934841 1110.84472847 C-640.22175075 1124.5171744 -652.1218804 1137.84118083 -665.68221951 1149.24609566 C-666.22491482 1149.70258492 -666.76761013 1150.15907417 -667.32675076 1150.62939644 C-714.90794535 1190.45444876 -771.54368508 1215.2167064 -832.74471951 1224.99609566 C-833.9726321 1225.19485298 -835.2005447 1225.39361031 -836.46566677 1225.59839058 C-861.57068253 1229.40980476 -886.58025935 1229.53099532 -911.90582299 1229.4782269 C-917.17743373 1229.46949013 -922.44904044 1229.4725197 -927.72065639 1229.47403145 C-936.82684421 1229.47507391 -945.93300308 1229.46886464 -955.03918362 1229.45755577 C-968.204759 1229.44121634 -981.37032058 1229.43608418 -994.535905 1229.43357979 C-1015.9025555 1229.42921585 -1037.26919062 1229.41594226 -1058.63583279 1229.39697456 C-1079.37639191 1229.37858194 -1100.11694683 1229.36444204 -1120.85751247 1229.35595894 C-1122.1386022 1229.35543349 -1123.41969193 1229.35490804 -1124.73960257 1229.35436668 C-1131.16724202 1229.35175637 -1137.59488151 1229.34922901 -1144.02252102 1229.34674287 C-1197.24243113 1229.32605093 -1250.46232456 1229.29086109 -1303.68221951 1229.24609566 C-1298.05209482 1217.26671922 -1292.3101737 1205.35488158 -1286.38363552 1193.51953316 C-1285.60035006 1191.95160143 -1284.81723377 1190.38358517 -1284.03427029 1188.81549263 C-1281.9389387 1184.6203356 -1279.84114142 1180.42641643 -1277.74273324 1176.23279762 C-1275.52676556 1171.80342827 -1273.31278107 1167.37306769 -1271.09846401 1162.942873 C-1267.38229401 1155.50872345 -1263.66445618 1148.07540981 -1259.94564724 1140.64258003 C-1255.67216652 1132.10105805 -1251.40156835 1123.55809957 -1247.13246495 1115.01438904 C-1243.43937532 1107.62364288 -1239.74469845 1100.23369176 -1236.0487408 1092.84437943 C-1233.85343884 1088.45531884 -1231.65864811 1084.06600486 -1229.46530247 1079.67596626 C-1227.4010834 1075.54459695 -1225.33484534 1071.41424316 -1223.26717281 1067.28460121 C-1222.51761303 1065.7867816 -1221.76870022 1064.28863798 -1221.02055836 1062.79010963 C-1217.09199392 1054.92230012 -1213.09190105 1047.10012344 -1208.97364616 1039.32979012 C-1204.12577135 1030.14698359 -1199.43698608 1020.89166832 -1194.80233669 1011.59985542 C-1193.95954633 1009.91399372 -1193.11657723 1008.22822136 -1192.27344799 1006.54252911 C-1189.987633 1001.971191 -1187.70428786 997.39862331 -1185.42138386 992.82583094 C-1182.9470279 987.87068507 -1180.47030381 982.91672303 -1177.99386501 977.96261787 C-1173.71151802 969.39505028 -1169.43058941 960.82677524 -1165.15060329 952.25802803 C-1158.95214126 939.84849028 -1152.75104636 927.44026959 -1146.54925394 915.03239596 C-1136.47107298 894.86898162 -1126.3943822 874.70482306 -1116.31893826 854.54004097 C-1116.0181268 853.93800441 -1115.71731534 853.33596786 -1115.40738839 852.71568777 C-1110.83228296 843.55918161 -1106.25724373 834.40264238 -1101.68221951 825.24609566 C-1096.80335082 815.48142845 -1091.92445777 805.71677342 -1087.04550076 795.95215034 C-1086.74485924 795.35045273 -1086.44421773 794.74875512 -1086.13446587 794.12882425 C-1075.79082672 773.42730781 -1065.44559666 752.72658683 -1055.09912395 732.0264864 C-1048.91664256 719.65705711 -1042.73557933 707.28692116 -1036.55637932 694.91585231 C-1032.32006762 686.43477032 -1028.08231888 677.9544074 -1023.8434639 669.47459626 C-1021.40270122 664.5917331 -1018.96258923 659.70854772 -1016.52427578 654.82446098 C-1014.28565279 650.34039241 -1012.04512152 645.85728245 -1009.80316687 641.37487876 C-1008.99908861 639.76645417 -1008.19567333 638.15769789 -1007.39304781 636.54854786 C-1002.35235005 626.44383487 -997.17842674 616.41835292 -991.89281672 606.43947333 C-988.89691434 600.77625744 -986.0144224 595.05828996 -983.15023708 589.32739449 C-982.57480663 588.1798922 -981.99937618 587.03238991 -981.40650845 585.85011482 C-979.86347682 582.77269068 -978.32289108 579.69404918 -976.78305554 576.61502481 C-975.81418013 574.67799501 -974.84473229 572.74125276 -973.87509632 570.80460358 C-970.4739253 564.01144144 -967.0747624 557.21727911 -963.67758083 550.42212105 C-960.5387999 544.14395722 -957.39554736 537.86804631 -954.2502268 531.59315664 C-951.52263074 526.15112595 -948.79819132 520.70752249 -946.07611293 515.26272982 C-944.46207491 512.03440176 -942.84686746 508.80667376 -941.22843266 505.58054733 C-932.25883525 487.75200417 -932.25883525 487.75200417 -924.17372036 469.51201057 C-913.1870088 445.45458877 -892.11113002 424.2547389 -867.4767704 414.56047726 C-854.41167406 409.83375321 -840.79221072 409.77606054 -827.0872488 409.72778511 C-825.01504572 409.71015848 -822.94285177 409.69143228 -820.87066746 409.67172241 C-815.15331466 409.6217428 -809.43600467 409.59136385 -803.71849942 409.56514335 C-800.02086171 409.54663628 -796.32329999 409.5225779 -792.62570667 409.4967308 C-745.53112064 409.16880856 -698.4358885 409.21994307 -651.34050113 409.28525084 C-648.57678967 409.28906435 -645.8130781 409.29277791 -643.04936647 409.29646349 C-630.01747646 409.31390723 -616.9855895 409.33305766 -603.95370388 409.35351753 C-602.55974808 409.35569853 -602.55974808 409.35569853 -601.13763157 409.3579236 C-578.17167913 409.39404274 -555.20578255 409.44035989 -532.2398806 409.50057133 C-516.13571631 409.54241792 -500.03157407 409.5687413 -483.92736071 409.5817793 C-474.12262137 409.59026811 -464.31807164 409.61089245 -454.51339956 409.64840803 C-447.84992625 409.67283227 -441.1865326 409.68236781 -434.52301524 409.68058797 C-430.70554116 409.68001685 -426.88837195 409.68560477 -423.07096577 409.7094593 C-383.95741635 409.94264712 -347.26381431 401.87234335 -312.68221951 383.24609566 C-312.01883572 382.89434273 -311.35545193 382.5425898 -310.6719656 382.18017769 C-258.60423348 354.45806619 -227.65656701 308.50303389 -203.05697536 256.40332222 C-198.45567729 246.68150383 -193.62710478 237.07659323 -188.77865505 227.47632027 C-185.00631474 219.99017596 -181.34389111 212.45953485 -177.74862576 204.88672066 C-170.98321747 190.66299006 -163.92763769 176.58489281 -156.87533474 162.50195503 C-154.99137611 158.73975322 -153.11107391 154.9757373 -151.23170376 151.21124172 C-143.83906769 136.40688212 -136.39646222 121.64242785 -128.62499905 107.03228951 C-126.44903679 102.90970281 -124.37334049 98.73698809 -122.30721951 94.55859566 C-121.90889919 93.75744331 -121.51057888 92.95629097 -121.10018826 92.13086128 C-120.32296001 90.56748578 -119.54686466 89.0035464 -118.77206326 87.43896675 C-118.07090049 86.0281594 -117.36550627 84.619443 -116.65487576 83.21338081 C-114.90342918 79.74740542 -113.21624063 76.26363901 -111.60409451 72.73047066 C-97.99674187 42.9488106 -76.66225348 18.31672409 -45.68221951 6.24609566 C-30.75911852 0.91072871 -15.68309817 -0.05729645 0 0 Z M-89.68221951 43.24609566 C-97.61313919 53.04935377 -103.36157303 63.8791515 -108.68221951 75.24609566 C-115.04493088 88.72592799 -121.5794557 102.08711247 -128.41829014 115.33082771 C-139.3904973 136.59247999 -150.12314409 157.97221858 -160.81283474 179.37695503 C-163.27723071 184.31150923 -165.74532419 189.24420403 -168.21431351 194.17646122 C-177.51260194 212.75486104 -186.78277991 231.33579125 -195.6671133 250.11651802 C-198.15850131 255.34316739 -200.76215666 260.51414249 -203.36971951 265.68359566 C-204.47543737 267.88008486 -205.58090705 270.07669901 -206.68612576 272.27343941 C-207.20320095 273.30066109 -207.72027615 274.32788277 -208.25302029 275.38623238 C-209.48598468 277.85342488 -210.69908333 280.32819876 -211.89706326 282.81250191 C-222.45867485 304.65409428 -236.05844072 325.28099575 -253.09432888 342.62304878 C-254.80401193 344.37058459 -256.48466524 346.14372914 -258.16659451 347.91797066 C-295.57485966 386.89385829 -351.3956587 412.13724047 -405.48583251 413.47381114 C-416.77091171 413.68289209 -428.05879557 413.64548192 -439.34527445 413.62019932 C-444.84487549 413.61125622 -450.34445369 413.61987556 -455.84405422 413.62640572 C-465.35074854 413.63551581 -474.85739446 413.63426935 -484.36408901 413.6262207 C-498.12510753 413.61493712 -511.88605785 413.6240755 -525.64707047 413.63878251 C-548.00090735 413.66249587 -570.35473856 413.67595237 -592.70858669 413.67993355 C-593.37578782 413.6800567 -594.04298895 413.68017984 -594.73040829 413.68030672 C-609.62995134 413.68302323 -624.52949391 413.68393475 -639.42903716 413.68288306 C-645.51896513 413.68245817 -651.6088931 413.68215071 -657.69882107 413.68188667 C-658.36686329 413.6818539 -659.03490551 413.68182112 -659.72319143 413.68178735 C-682.68328216 413.68075512 -705.64333809 413.69517492 -728.60341406 413.72271973 C-742.32823176 413.73849989 -756.05292309 413.74080903 -769.77774209 413.72558571 C-779.17760576 413.71611004 -788.57739327 413.72089255 -797.97724801 413.73679953 C-803.39489999 413.74547924 -808.81234942 413.74766869 -814.22999096 413.7322731 C-819.19652162 413.71827211 -824.16268674 413.72288074 -829.1291979 413.74179412 C-830.91813248 413.74538396 -832.70709655 413.74232445 -834.49600285 413.73164444 C-848.56169689 413.65337877 -861.42473859 415.32161045 -874.05721951 422.05859566 C-874.72656521 422.4062397 -875.39591091 422.75388374 -876.08553982 423.11206245 C-881.43954945 425.96523733 -886.14435462 429.20796012 -890.68221951 433.24609566 C-891.62452419 434.04660347 -892.56682888 434.84711128 -893.53768826 435.67187691 C-903.67093353 444.44084451 -911.31467392 454.41730631 -917.86971951 466.05859566 C-918.24950954 466.73221138 -918.62929958 467.4058271 -919.02059841 468.09985542 C-921.54689598 472.75228243 -923.69398453 477.53073506 -925.77596951 482.39453316 C-929.96303659 492.13943593 -934.72185897 501.59080578 -939.48763943 511.06274605 C-940.98612358 514.04150825 -942.47822133 517.02340081 -943.96932888 520.00586128 C-944.95267737 521.96763807 -945.93638982 523.92923248 -946.92050076 525.89062691 C-947.35002544 526.74856346 -947.77955013 527.60650002 -948.22209072 528.49043465 C-950.78070869 533.57032775 -953.39951527 538.61529645 -956.06135535 543.64164823 C-961.36300804 553.65983024 -966.50316732 563.7498907 -971.56210232 573.89233589 C-972.40489268 575.5781976 -973.24786178 577.26396996 -974.09099102 578.94966221 C-976.37680601 583.52100032 -978.66015115 588.093568 -980.94305515 592.66636038 C-983.41741111 597.62150625 -985.8941352 602.57546829 -988.370574 607.52957344 C-992.65292099 616.09714104 -996.9338496 624.66541607 -1001.21383572 633.23416328 C-1007.41229775 645.64370104 -1013.61339265 658.05192172 -1019.81518507 670.45979536 C-1029.89336603 690.62320969 -1039.97005681 710.78736826 -1050.04550076 730.95215034 C-1050.34631221 731.5541869 -1050.64712367 732.15622346 -1050.95705062 732.77650355 C-1055.53215605 741.9330097 -1060.10719528 751.08954893 -1064.68221951 760.24609566 C-1069.56108819 770.01076287 -1074.43998124 779.7754179 -1079.31893826 789.54004097 C-1079.61957977 790.14173858 -1079.92022128 790.74343619 -1080.22997314 791.36336707 C-1090.5736123 812.06488351 -1100.91884235 832.76560449 -1111.26531506 853.46570492 C-1117.44779645 865.83513421 -1123.62885968 878.20527015 -1129.80805969 890.57633901 C-1134.04437139 899.057421 -1138.28212013 907.53778392 -1142.52097511 916.01759505 C-1144.96173779 920.90045822 -1147.40184978 925.7836436 -1149.84016323 930.66773033 C-1152.07878622 935.15179891 -1154.31931749 939.63490887 -1156.56127214 944.11731255 C-1157.3653504 945.72573715 -1158.16876568 947.33449342 -1158.9713912 948.94364345 C-1163.60936491 958.24104542 -1168.34313974 967.4800688 -1173.2099359 976.66006333 C-1177.20033447 984.18968355 -1181.0165828 991.80197043 -1184.80721951 999.43359566 C-1185.46457374 1000.75335568 -1186.1221263 1002.07301694 -1186.77987576 1003.39258003 C-1187.71797288 1005.27473844 -1188.65575601 1007.1570513 -1189.59251642 1009.03987539 C-1191.8304569 1013.53771476 -1194.07304815 1018.03319643 -1196.32028103 1022.52639961 C-1196.66199699 1023.20972677 -1197.00371295 1023.89305393 -1197.35578394 1024.59708798 C-1201.25535124 1032.39381243 -1205.15962891 1040.18817757 -1209.06390285 1047.98254585 C-1219.00996892 1067.83886244 -1228.95108128 1087.69765649 -1238.8898077 1107.55764771 C-1244.62639657 1119.02047132 -1250.3645111 1130.48252668 -1256.10604763 1141.942873 C-1261.13382082 1151.97852946 -1266.15881048 1162.01557376 -1271.18041849 1172.05431664 C-1273.83419832 1177.3592661 -1276.48938927 1182.66349867 -1279.14793301 1187.96606255 C-1281.64007052 1192.93682543 -1284.12850211 1197.90942521 -1286.61402798 1202.88349724 C-1287.52856262 1204.71201394 -1288.44448012 1206.53983971 -1289.36184597 1208.36693764 C-1290.60874921 1210.85086951 -1291.85076239 1213.33718481 -1293.09152126 1215.82419014 C-1293.45959534 1216.55451261 -1293.82766942 1217.28483509 -1294.20689726 1218.03728855 C-1296.05226077 1221.47457965 -1296.05226077 1221.47457965 -1296.68221951 1225.24609566 C-1242.53203257 1225.29192728 -1188.3818476 1225.32714234 -1134.23164507 1225.34822632 C-1127.83089251 1225.35072757 -1121.43013998 1225.35331623 -1115.02938747 1225.35595894 C-1113.75517518 1225.35648356 -1112.48096289 1225.35700818 -1111.1681381 1225.3575487 C-1090.56770824 1225.36623853 -1069.96728961 1225.38200064 -1049.36686639 1225.40040125 C-1028.2106687 1225.41913993 -1007.05447686 1225.43022076 -985.8982712 1225.43427265 C-972.85601133 1225.43700948 -959.81378319 1225.44563671 -946.77153309 1225.46192859 C-937.8138783 1225.4725445 -928.85623978 1225.47568591 -919.89857917 1225.47309841 C-914.73950314 1225.47182426 -909.58048235 1225.47370259 -904.42141628 1225.48450661 C-869.86466054 1225.69440547 -869.86466054 1225.69440547 -835.61971951 1221.44140816 C-834.72962185 1221.27615639 -833.83952419 1221.11090462 -832.92245388 1220.94064522 C-831.087387 1220.59763961 -829.25321118 1220.24982839 -827.42001247 1219.89697456 C-824.65683441 1219.36621965 -821.89066237 1218.85396836 -819.12362576 1218.34375191 C-809.12437057 1216.47320106 -799.39649161 1214.29499454 -789.68221951 1211.24609566 C-788.54349392 1210.89692085 -787.40476833 1210.54774605 -786.23153591 1210.18799019 C-729.56092463 1192.55730755 -674.1953509 1161.12439279 -636.80721951 1113.92187691 C-635.44401733 1112.20534476 -634.05025717 1110.51239696 -632.61971951 1108.85156441 C-617.95515798 1091.73392366 -606.61579774 1071.85141192 -597.46852016 1051.31897163 C-594.31605196 1044.36227074 -590.89973407 1037.54071322 -587.48031521 1030.71289253 C-586.76658336 1029.2840706 -586.05302116 1027.85516392 -585.33961391 1026.42617989 C-583.41554106 1022.57350651 -581.4889695 1018.72208789 -579.56181264 1014.87095642 C-577.53134053 1010.81256419 -575.50283905 1006.75318708 -573.47401333 1002.69397163 C-570.06348928 995.87110833 -566.65128764 989.049086 -563.23812771 982.22754097 C-559.31692006 974.39054867 -555.39857624 966.55212968 -551.48174506 958.71294928 C-548.09871419 951.94231582 -544.71409115 945.17247999 -541.32819146 938.40328074 C-539.31503592 934.37851264 -537.30239087 930.35349173 -535.29119205 926.32774544 C-533.39446673 922.53135725 -531.49571313 918.73598976 -529.59553623 914.94132805 C-528.90725803 913.56606908 -528.21962292 912.19048799 -527.53276348 910.81451988 C-523.80911864 903.35618421 -520.00754665 895.94748804 -516.10082912 888.5833149 C-509.58634561 876.27712276 -503.3923422 863.80893806 -497.17045033 851.35328197 C-495.38520794 847.78050256 -493.59763202 844.20889083 -491.81037807 840.63711739 C-488.32251439 833.66580434 -484.83678281 826.69342741 -481.3518501 819.7206488 C-478.51488986 814.04445643 -475.67713591 808.36866153 -472.83883381 802.69314003 C-472.4326112 801.88084804 -472.02638858 801.06855605 -471.6078562 800.23164915 C-470.78222035 798.58069723 -469.95658273 796.9297462 -469.13094335 795.27879605 C-461.41348037 779.84671235 -453.69845653 764.41341027 -445.98428582 748.97968063 C-439.389818 735.78628114 -432.79325706 722.59392997 -426.19515896 709.40234566 C-418.50433056 694.02606214 -410.81482276 678.64911937 -403.12736696 663.2711494 C-402.30471995 661.62553689 -401.48207129 659.9799252 -400.65942097 658.33431435 C-400.25483036 657.52497885 -399.85023975 656.71564336 -399.43338882 655.88178255 C-396.60585961 650.22586697 -393.7774128 644.57041087 -390.94859409 638.91514015 C-387.4916512 632.00408342 -384.03617435 625.09229593 -380.58247358 618.17961839 C-378.82612628 614.66432766 -377.06918886 611.14933574 -375.31045818 607.63523674 C-368.09068804 593.20839224 -360.94593633 578.75224346 -354.03447533 564.17434502 C-350.30720019 556.3268237 -346.39803044 548.56957988 -342.49471951 540.80859566 C-341.37155278 538.56983301 -340.24897876 536.33077391 -339.12647915 534.09167671 C-338.3908767 532.62561864 -337.65432976 531.16003405 -336.91679287 529.6949482 C-335.11200116 526.1085236 -333.32048064 522.5166065 -331.5559988 518.91015816 C-328.02856287 511.72034036 -324.43073574 504.7239668 -319.86971951 498.12109566 C-319.36255398 497.37521187 -318.85538845 496.62932808 -318.33285427 495.86084175 C-308.41689246 481.44182322 -297.33816853 467.30884182 -283.68221951 456.24609566 C-282.26296169 455.05306831 -282.26296169 455.05306831 -280.81503201 453.83593941 C-250.90515907 429.13763524 -212.47434568 412.05862461 -173.32178783 412.11301708 C-172.08265947 412.11077406 -170.84353111 412.10853103 -169.5668534 412.10622004 C-166.12875791 412.10099343 -162.6907134 412.10021075 -159.25261756 412.10129298 C-155.51147492 412.10136575 -151.77034043 412.09564484 -148.02920175 412.09064811 C-141.47244719 412.08267823 -134.91569817 412.07836191 -128.35893917 412.07643127 C-118.60821204 412.07353048 -108.85749588 412.06490555 -99.10677363 412.05501816 C-82.69927386 412.03850282 -66.29177365 412.02631642 -49.88426876 412.0163002 C-26.43284678 412.00187994 -2.9814369 411.97911867 20.46997645 411.95463509 C29.88288131 411.94484458 39.29578646 411.93532366 48.7086916 411.92580509 C50.27741483 411.92421694 50.27741483 411.92421694 51.87782943 411.92259671 C76.77415244 411.89744338 101.67047768 411.87494976 126.56680393 411.85327339 C127.65615051 411.85232295 128.74549709 411.85137252 129.86785417 411.85039328 C155.2730368 411.82825015 180.67822008 411.80737534 206.08340549 411.7886982 C207.72142578 411.78749257 207.72142578 411.78749257 209.39253739 411.78626259 C214.89876108 411.78221191 220.40498478 411.77817032 225.91120848 411.77412932 C226.99940893 411.77333033 228.08760937 411.77253134 229.20878559 411.77170814 C231.4052063 411.77009583 233.60162701 411.768485 235.79804773 411.76687567 C272.11172057 411.74022681 308.42538242 411.70684975 344.73904225 411.66609753 C349.87086635 411.66034784 355.00269054 411.65468918 360.13451481 411.64909363 C361.1444605 411.64799182 362.15440619 411.64689002 363.19495629 411.64575483 C379.42917114 411.62826972 395.66338273 411.61808872 411.89760504 411.61084118 C428.22512895 411.60343736 444.55263428 411.58901131 460.8801457 411.56741542 C470.57185902 411.55482448 480.26353954 411.54774741 489.9552612 411.54866562 C496.4407391 411.54873548 502.92618352 411.54154104 509.41164846 411.52861557 C513.0993256 411.52147189 516.78693266 411.51733417 520.47461525 411.52213807 C535.88326338 411.54005898 551.02469933 411.21919442 566.31778049 409.24609566 C567.40901698 409.10840549 568.50025347 408.97071531 569.62455773 408.82885271 C623.0349796 401.78452734 676.64112848 377.50675043 719.59024143 345.52929878 C721.45164712 344.14666052 723.32575421 342.78232897 725.20059299 341.41797066 C753.20743935 320.89430952 782.59591302 295.97471816 798.08755589 264.38769722 C798.70540354 263.15030316 799.3243186 261.91344161 799.94419956 260.6770649 C801.60369511 257.35977532 803.24841316 254.03536453 804.89033532 250.70934963 C806.62612838 247.1997896 808.37587485 243.69719752 810.12403965 240.19378853 C813.43173865 233.55982848 816.72718426 226.91986212 820.01810306 220.27756476 C823.73646425 212.77398096 827.46828407 205.27712127 831.20137131 197.78085566 C836.72614436 186.68635493 842.24431891 175.58860781 847.75264609 164.48593271 C862.68746217 134.38449251 862.68746217 134.38449251 867.68103123 124.86583138 C878.6633826 103.92772583 889.16384393 82.74133221 899.73623753 61.59448433 C902.64854445 55.76976719 905.56642776 49.94786171 908.48557949 44.12657261 C910.74440321 39.61998936 912.99963284 35.11161496 915.25381947 30.60271072 C916.32987387 28.4517824 917.40722638 26.30150298 918.48589802 24.15188599 C919.97774409 21.17791718 921.46457254 18.20149364 922.95010471 15.22436714 C923.39564701 14.33890205 923.84118931 13.45343697 924.30023289 12.5411396 C924.90094608 11.33342148 924.90094608 11.33342148 925.5137949 10.10130501 C925.86432863 9.40078231 926.21486237 8.70025961 926.57601833 7.97850895 C927.44898222 6.25375806 927.44898222 6.25375806 927.31778049 4.24609566 C837.16422021 4.19467906 747.01065813 4.1469769 656.85708714 4.11906624 C655.50938787 4.11864789 654.1616886 4.11822953 652.81398933 4.11781117 C624.52417764 4.10904274 596.2343658 4.10089263 567.94455373 4.09345662 C553.73321977 4.0897205 539.52188584 4.08586558 525.31055195 4.08189833 C523.16685274 4.08130059 521.02315354 4.08070623 518.87945433 4.08011202 C485.87736721 4.07093425 452.87528342 4.05921195 419.87320042 4.04010201 C419.1638599 4.03969131 418.45451938 4.03928061 417.72368369 4.03885747 C406.28733009 4.03222052 394.85097661 4.02536963 383.41462315 4.01849034 C350.46631232 3.99867424 317.51800404 3.98044541 284.56968784 3.97267628 C283.55291503 3.97243537 283.55291503 3.97243537 282.51560136 3.97218959 C267.63360343 3.96869195 252.75160547 3.96600755 237.86960726 3.96409271 C231.88119112 3.96330787 225.89277499 3.96240435 219.90435886 3.96146393 C217.93913703 3.96116052 217.93913703 3.96116052 215.93421375 3.96085099 C194.84131067 3.95730533 173.74842656 3.94338977 152.65553121 3.92559956 C131.45196372 3.90793718 110.24841504 3.90119189 89.04484046 3.90559153 C76.44621336 3.90787387 63.84765508 3.90178447 51.24904041 3.88370303 C42.83073154 3.87244625 34.4124677 3.87210973 25.99415572 3.88060022 C21.19908427 3.88512534 16.4041429 3.88495221 11.60908544 3.87144611 C7.23936934 3.85923189 2.86988382 3.86105716 -1.49982908 3.87367573 C-3.06368367 3.87580327 -4.62755562 3.87299418 -6.19138798 3.86438992 C-40.19646415 3.68928583 -67.33171944 17.81830627 -89.68221951 43.24609566 Z " fill="#000306" transform="translate(1593.68221950531,133.75390434265137)"/>
<path d="M0 0 C1.84237693 -0.00148324 3.68475332 -0.00384459 5.52712816 -0.006993 C10.55866546 -0.01308081 15.59012083 -0.00682308 20.62165197 0.00156327 C26.1071847 0.0084729 31.5927097 0.00368227 37.07824409 0.00040829 C46.68164725 -0.00372771 56.28502556 -0.00047128 65.88842583 0.00768471 C80.16822174 0.01977848 94.44800264 0.02035747 108.72780268 0.01860073 C132.75126437 0.0157905 156.77471546 0.02263083 180.7981739 0.03463554 C204.58010345 0.04649111 228.36202847 0.05418785 252.14396095 0.05634117 C253.25290847 0.05644441 253.25290847 0.05644441 254.38425897 0.05654973 C261.13687327 0.05717615 267.88948757 0.05775153 274.64210188 0.05826568 C291.42635774 0.05954427 308.21061349 0.06146279 324.99486923 0.06381607 C325.75908334 0.06392271 326.52329746 0.06402934 327.31066957 0.06413921 C364.46128994 0.0693789 401.61190732 0.08199265 438.76252556 0.09521675 C451.65034292 0.09980018 464.53816029 0.10435096 477.42597771 0.10876656 C478.62497658 0.1091774 478.62497658 0.1091774 479.84819766 0.10959655 C517.02570261 0.12229097 554.20320807 0.12973791 591.38071462 0.13583615 C593.79509733 0.13623227 596.20948004 0.13663066 598.62386275 0.1370295 C614.6244607 0.13966913 630.62505867 0.14221842 646.62565664 0.14470722 C678.46131401 0.14965988 710.29697128 0.15514323 742.13262849 0.16099132 C743.64863431 0.1612698 745.16464014 0.16154791 746.68064596 0.16182564 C828.48290609 0.17681575 910.28516311 0.20098371 1049.10578728 0.24609566 C1047.62405473 4.82597105 1045.83144829 9.07657816 1043.66767693 13.36955452 C1043.32183823 14.06364632 1042.97599954 14.75773813 1042.61968088 15.47286302 C1041.46454311 17.78875551 1040.30372934 20.10175431 1039.14289665 22.41479683 C1038.3112093 24.07924505 1037.47986845 25.74386645 1036.64884758 27.40864754 C1034.39169842 31.92779138 1032.12955756 36.4444196 1029.86641312 40.96056342 C1027.49015761 45.70426845 1025.11813815 50.45009094 1022.74555779 55.19563484 C1018.75345198 63.17890962 1014.75825229 71.16062986 1010.76106071 79.14135933 C1006.16223692 88.32335447 1001.5675382 97.50740379 996.97526884 106.69267863 C992.06541321 116.51307027 987.15249606 126.331928 982.2387085 136.15035272 C980.8349937 138.95566731 979.43183551 141.76125969 978.02880669 144.56691742 C975.80468501 149.01414189 973.5784857 153.46032077 971.35080147 157.90576172 C970.54159768 159.52129401 969.73302951 161.13714489 968.92521095 162.75337029 C964.28680374 172.03228049 959.5482979 181.24987038 954.69940537 190.42062479 C951.08594996 197.26117181 947.57744138 204.14855619 944.11482048 211.06689644 C943.4844608 212.32296016 942.85395227 213.57894919 942.22331047 214.83487129 C940.5459295 218.1767877 938.87102237 221.51993709 937.19697785 224.86352587 C936.14424849 226.96601346 935.0910636 229.0682723 934.03775406 231.17046928 C930.72182458 237.78873925 927.40744629 244.40778243 924.09539157 251.02799237 C920.30845661 258.59737456 916.51628405 266.16410198 912.71959049 273.72859395 C909.75704824 279.63193087 906.79922395 285.53761673 903.84484547 291.44504344 C902.09211249 294.94947256 900.3375412 298.4529483 898.57798004 301.9539547 C888.91230705 321.08784244 888.91230705 321.08784244 880.54052544 340.81125069 C869.32661524 367.65799119 845.93366556 390.98694321 819.43000603 402.55468941 C807.66969344 407.36149439 795.21706091 409.41227263 782.55882883 409.37029415 C781.73056876 409.37157224 780.90230868 409.37285033 780.04894981 409.37416714 C777.27399428 409.37722937 774.49909571 409.37316853 771.72414207 409.36914349 C769.70582374 409.36988326 767.68750552 409.37106199 765.66918766 409.37263998 C760.10254249 409.37571313 754.53591554 409.37253045 748.96927173 409.36836185 C742.92103324 409.36493156 736.87279663 409.3672977 730.82455778 409.36893934 C720.21767214 409.37101495 709.61079273 409.36939881 699.00390816 409.36530113 C687.6226133 409.36092365 676.24132113 409.35872848 664.86002541 409.35920334 C663.78191564 409.35924638 663.78191564 409.35924638 662.68202587 409.35929028 C659.01719626 409.35944666 655.35236665 409.35963861 651.68753704 409.35984312 C625.15807355 409.3612508 598.62861246 409.35781915 572.0991497 409.35182571 C545.82488811 409.3459041 519.55062754 409.3420508 493.27636528 409.3409729 C492.46051406 409.34093849 491.64466283 409.34090408 490.80408885 409.34086862 C483.35259044 409.34055542 475.90109203 409.34026773 468.44959362 409.34001065 C449.92565667 409.33937124 431.40171974 409.3384119 412.87778282 409.33723545 C412.0342255 409.33718213 411.19066817 409.33712882 410.3215485 409.33707388 C369.28315635 409.3344521 328.24476488 409.32814443 287.20637321 409.32153511 C272.96438917 409.31924346 258.72240512 409.3169681 244.48042107 409.31476021 C243.59713683 409.31462326 242.7138526 409.31448631 241.80380218 409.31434521 C200.74531245 409.30800161 159.6868226 409.3042757 118.6283325 409.30122541 C115.96291975 409.30102735 113.29750699 409.30082816 110.63209424 409.30062873 C92.96832609 409.29930896 75.30455794 409.29803431 57.64078979 409.29678987 C22.49400726 409.29431335 -12.65277525 409.29157166 -47.79955774 409.28864783 C-49.47335482 409.28850859 -51.14715191 409.28836953 -52.82094899 409.28823066 C-128.1754487 409.28197725 -203.5299479 409.27263921 -278.8844471 409.2619648 C-279.59006607 409.26186486 -280.29568505 409.26176493 -281.02268641 409.26166196 C-316.31319521 409.25666146 -351.60370398 409.25148495 -386.89421272 409.24609566 C-385.72746792 405.68808939 -384.54623287 402.29960954 -382.86296272 398.95312691 C-382.46335335 398.15584175 -382.06374397 397.35855659 -381.65202522 396.53711128 C-381.2369471 395.71920113 -380.82186897 394.90129097 -380.39421272 394.05859566 C-379.81800179 392.90714058 -379.81800179 392.90714058 -379.23015022 391.73242378 C-376.28055989 385.87498261 -373.22890408 380.0729634 -370.16765022 374.27343941 C-365.46951736 365.37142143 -360.85978967 356.42632769 -356.27989388 347.4630146 C-350.03746447 335.24773929 -343.77321914 323.04528843 -337.40593147 310.89453316 C-332.89992822 302.28417597 -328.45932831 293.64054607 -324.01921272 284.99609566 C-316.91592678 271.1675879 -309.77699923 257.35821237 -302.61393929 243.56054878 C-299.59890024 237.74962175 -296.5896206 231.93571619 -293.58171272 226.12109566 C-293.27384834 225.5259919 -292.96598396 224.93088814 -292.64879036 224.31775093 C-287.89365392 215.12475568 -283.1515768 205.92507389 -278.41404915 196.72299385 C-276.27847078 192.57569897 -274.14125834 188.42924582 -272.00404549 184.28279305 C-269.96345453 180.32323004 -267.92578944 176.36217984 -265.89035225 172.39996529 C-264.93398843 170.53959634 -263.97608361 168.68003064 -263.01750374 166.82080269 C-261.85395772 164.5639909 -260.69278518 162.30595296 -259.53459358 160.04638863 C-254.72874377 150.74174377 -249.61808818 141.83759751 -243.26921272 133.49609566 C-242.49770882 132.4764875 -242.49770882 132.4764875 -241.71061897 131.4362812 C-227.35817481 112.65980963 -210.97576565 94.49520131 -192.89421272 79.24609566 C-192.01120491 78.47394722 -191.1281971 77.70179878 -190.21843147 76.90625191 C-149.47824256 41.4808694 -100.47323006 14.41812786 -47.20671272 3.99609566 C-46.43690071 3.84487251 -45.6670887 3.69364937 -44.87394905 3.5378437 C-29.94925535 0.81096528 -15.13561815 -0.0492778 0 0 Z M-141.89421272 46.24609566 C-142.508451 46.63442574 -143.12268929 47.02275581 -143.75554085 47.42285347 C-160.03038399 57.80389074 -175.50990377 69.37687948 -189.89421272 82.24609566 C-190.82620491 83.06722847 -191.7581971 83.88836128 -192.71843147 84.73437691 C-206.31489846 96.92758231 -219.75779696 109.7413878 -230.89421272 124.24609566 C-231.86061274 125.427478 -232.83097443 126.60562599 -233.80436897 127.78125191 C-234.8551892 129.06116783 -235.90597064 130.34111559 -236.95671272 131.62109566 C-237.42786507 132.18546333 -237.89901741 132.74983101 -238.3844471 133.33130074 C-248.35132279 145.62023911 -255.05677437 160.08085064 -262.14421272 174.12109566 C-263.69408944 177.17563289 -265.24598572 180.22913843 -266.7979908 183.28259468 C-267.80799011 185.26999118 -268.81737828 187.2576984 -269.82612801 189.24572945 C-273.26392277 196.01901876 -276.73721968 202.77135501 -280.26921272 209.49609566 C-284.97941973 218.47390521 -289.63096 227.48097213 -294.26921272 236.49609566 C-299.46177199 246.58769055 -304.66430332 256.67378968 -309.89421272 266.74609566 C-315.08082089 276.7358954 -320.24294134 286.73804272 -325.39421272 296.74609566 C-331.10546356 307.84209437 -336.83524052 318.92812149 -342.58561897 330.00390816 C-347.92826119 340.2997517 -353.23876579 350.61203766 -358.54484749 360.92675972 C-362.02061013 367.68138183 -365.50539868 374.43101878 -369.01530647 381.16797066 C-369.34112709 381.79389107 -369.66694771 382.41981148 -370.00264168 383.06469917 C-371.5339446 386.00624078 -373.06745805 388.94655617 -374.60515022 391.88476753 C-375.14268929 392.91666206 -375.68022835 393.94855659 -376.23405647 395.01172066 C-376.70190559 395.9066523 -377.16975471 396.80158394 -377.65178108 397.72363472 C-378.86753279 400.19192842 -379.88661401 402.68725132 -380.89421272 405.24609566 C-345.13802832 405.26808974 -309.38184339 405.28917726 -273.62565804 405.30957222 C-272.57608116 405.31017101 -272.57608116 405.31017101 -271.50530071 405.31078189 C-196.51569847 405.35353898 -121.52609606 405.39042929 -46.53648567 405.41546822 C-44.87037329 405.41602602 -43.20426091 405.41658382 -41.53814853 405.41714163 C-6.56441814 405.4288329 28.40931246 405.4396997 63.38304339 405.44961437 C80.95204791 405.45459587 98.52105238 405.45973576 116.0900568 405.46502542 C118.74024054 405.46582242 121.39042428 405.46661489 124.04060802 405.46740718 C164.83968176 405.47964411 205.63875072 405.49527368 246.43781853 405.52075386 C247.75319608 405.52157525 247.75319608 405.52157525 249.09514692 405.52241324 C263.23326478 405.5312625 277.37138246 405.54039702 291.50950011 405.54956942 C332.24194875 405.57599109 372.9743937 405.60029612 413.70685005 405.61065483 C414.54485359 405.61086897 415.38285713 405.61108311 416.24625471 405.61130374 C434.64447668 405.61596729 453.04269869 405.61954648 471.44092106 405.62209959 C478.84425753 405.62314604 486.24759397 405.62434853 493.6509304 405.62560463 C494.46118264 405.62573834 495.27143488 405.62587205 496.10624021 405.62600981 C522.19301323 405.63039224 548.27975893 405.64746514 574.36652093 405.67122449 C600.65465705 405.69510897 626.94276668 405.70648564 653.23091392 405.70059161 C656.86765656 405.69977934 660.50439921 405.69910979 664.14114189 405.69852638 C664.85401691 405.69840686 665.56689193 405.69828734 666.30136922 405.69816419 C677.56746008 405.69664444 688.83349471 405.70855443 700.09957027 405.72613511 C711.19095055 405.74316495 722.28227294 405.7454868 733.37366409 405.73342291 C739.30153473 405.72738997 745.22921831 405.72761792 751.15706882 405.74562839 C756.55936173 405.76191692 761.96132312 405.75947767 767.36361144 405.74265556 C769.29675836 405.7398194 771.22993027 405.74356193 773.16304521 405.75503664 C802.13764329 405.91599804 826.90926813 398.71918412 848.10578728 378.24609566 C849.78029695 376.58730908 851.44690258 374.92050813 853.10578728 373.24609566 C853.87277946 372.47652534 854.63977165 371.70695503 855.43000603 370.91406441 C867.91246522 357.8126403 876.06417925 341.80603801 883.09040642 325.26562691 C887.84380034 314.27688666 893.29040098 303.62792397 898.66438103 292.93359566 C899.77899743 290.70810536 900.89325341 288.4824345 902.00716972 286.2565937 C904.92182433 280.43486132 907.84126892 274.6155444 910.76179314 268.79675484 C913.71593341 262.90891887 916.66557081 257.01882827 919.6155529 251.12890816 C924.39117987 241.5951078 929.16926591 232.06254561 933.95165825 222.53213692 C934.3816613 221.67502113 934.81166435 220.81790535 935.2546978 219.93481636 C935.70005284 219.04729966 936.14540789 218.15978296 936.60425854 217.24537182 C937.72083064 215.01503949 938.8345616 212.78339858 939.94590092 210.55046177 C944.24100533 201.92696244 948.61156723 193.34637121 953.04355919 184.79250324 C961.60661884 168.2551589 969.98275903 151.62803907 978.29720998 134.96464419 C980.13097536 131.29066247 981.96715984 127.61788993 983.80303764 123.94496346 C987.25824611 117.03148719 990.71142493 110.11699941 994.16379255 103.20210415 C998.07391731 95.37059779 1001.98636446 87.54025245 1005.89899743 79.70999897 C1010.68941852 70.12299086 1015.47946979 60.53579824 1020.26778984 50.94774055 C1020.60291975 50.27671277 1020.93804967 49.60568499 1021.28333503 48.91432303 C1022.8893643 45.69848285 1024.49510631 42.48249987 1026.1002264 39.26620579 C1028.61844051 34.22126456 1031.13766811 29.17694695 1033.67460442 24.14138985 C1034.22683756 23.04360002 1034.22683756 23.04360002 1034.79022694 21.92363262 C1035.68997319 20.13655097 1036.59210878 18.35067276 1037.49456596 16.56495857 C1038.78529425 13.90626097 1040.01105282 11.24044985 1041.20648861 8.53866673 C1041.74155548 7.3306193 1041.74155548 7.3306193 1042.28743178 6.09816688 C1042.55748909 5.48698338 1042.82754641 4.87579987 1043.10578728 4.24609566 C957.60712846 4.17366276 872.10846023 4.10124516 739.53097343 4.03437996 C738.01733662 4.03368271 736.5036998 4.03298545 734.99006298 4.03228819 C703.21414749 4.01767283 671.43823162 4.00408946 639.66231518 3.99169727 C623.69876601 3.98547059 607.73521692 3.97904573 591.77166791 3.97243345 C589.36371885 3.9714372 586.9557698 3.97044661 584.54782074 3.96945626 C547.4957053 3.95416742 510.44359808 3.93464434 473.39149284 3.9027729 C472.19771316 3.90174616 472.19771316 3.90174616 470.97981672 3.90069868 C458.14938892 3.88963767 445.31896144 3.8782193 432.48853399 3.86675346 C395.50528218 3.83370903 358.52203674 3.80333387 321.53877163 3.79039669 C320.77724594 3.79012902 320.01572026 3.78986134 319.23111804 3.78958555 C302.50842276 3.78375493 285.78572741 3.77928149 269.06303143 3.77609074 C262.33302128 3.77478275 255.60301119 3.77327963 248.8730011 3.77170944 C247.76818829 3.77145874 247.76818829 3.77145874 246.64105603 3.77120297 C222.9619189 3.76573283 199.28282897 3.74441875 175.60371086 3.71468462 C151.72451314 3.68477247 127.8453611 3.67062364 103.9661442 3.67797572 C89.16466199 3.68251546 74.36335414 3.67376894 59.5619037 3.64210794 C50.10021236 3.6232583 40.63863198 3.62284724 31.17693276 3.63693659 C25.79817263 3.64443276 20.41973397 3.64438143 15.0410093 3.62167975 C-41.58998883 3.39688527 -93.51354824 15.5650654 -141.89421272 46.24609566 Z " fill="#000202" transform="translate(387.8942127227783,1.7539043426513672)"/>
</svg>
