<svg
      width="658"
      height="641"
      viewBox="0 0 658 641"
      fill="none"
      xmlns="http://www.w3.org/2000/svg">
      <rect
        x="102"
        y="98"
        width="459"
        height="445"
        rx="20"
        fill="#EFF1F4"
        fill-opacity="0.15" />
      <g filter="url(#filter0_f_173_548)">
        <ellipse
          cx="328.804"
          cy="320.278"
          rx="112.5"
          ry="219.5"
          transform="rotate(47.4718 328.804 320.278)"
          fill="url(#paint0_angular_173_548)" />
      </g>
      <path
        d="M278.309 314.88L212.246 436.387H283.557C316.898 436.387 333.054 417.037 336.964 407.362C349.106 385.166 375.429 336.905 383.579 321.425C391.729 305.945 407.349 303.023 414.141 303.498H536.08C558.801 303.498 576.418 289.08 582.386 281.871L607.083 236.626H440.381C429.761 236.626 424.019 245.163 422.476 249.432C420.521 252.846 414.264 264.115 404.88 281.871C393.149 304.067 369.378 303.498 369.996 303.498C370.613 303.498 303.623 303.213 293.127 303.498C284.73 303.725 279.75 311.181 278.309 314.88Z"
        fill="#0085FB" />
      <path
        d="M184.771 238.621L161 281.02L367.526 281.02C378.145 281.02 383.887 272.104 385.431 267.646L414.141 215.002C361.66 215.097 251.205 215.23 229.225 215.002C207.245 214.775 190.431 230.653 184.771 238.621Z"
        fill="#0CE1FA" />
      <defs>
        <filter
          id="filter0_f_173_548"
          x="0.019043"
          y="0.28418"
          width="657.57"
          height="639.988"
          filterUnits="userSpaceOnUse"
          color-interpolation-filters="sRGB">
          <feFlood flood-opacity="0" result="BackgroundImageFix" />
          <feBlend
            mode="normal"
            in="SourceGraphic"
            in2="BackgroundImageFix"
            result="shape" />
          <feGaussianBlur
            stdDeviation="75"
            result="effect1_foregroundBlur_173_548" />
        </filter>
        <radialGradient
          id="paint0_angular_173_548"
          cx="0"
          cy="0"
          r="1"
          gradientUnits="userSpaceOnUse"
          gradientTransform="translate(328.804 320.278) rotate(6.57712) scale(117.01 228.3)">
          <stop offset="0.626217" stop-color="#5576A0" />
          <stop offset="1" stop-color="#1F2B3A" />
        </radialGradient>
      </defs>
    </svg>