<svg width="407" height="313" viewBox="0 0 407 313" fill="none" xmlns="http://www.w3.org/2000/svg">
<g clip-path="url(#clip0_1_852)">
<path d="M284.231 270.795H283.28V169.466C283.28 169.053 283.186 168.645 283.004 168.272C282.822 167.9 282.556 167.571 282.227 167.311L282.828 166.593C283.267 166.94 283.621 167.378 283.864 167.875C284.107 168.372 284.232 168.915 284.231 169.466V270.795Z" fill="#3F3D56"/>
<path d="M187.284 10.7571C187.53 11.3037 187.714 11.8752 187.831 12.461C187.565 11.5674 187.355 10.9608 187.284 10.7571Z" fill="#3F3D56"/>
<path d="M195.726 39.0657C195.726 39.0657 195.726 39.7046 195.017 42.0104L195.726 39.0657Z" fill="#3F3D56"/>
<path d="M282.611 135.516C263.896 145.008 239.413 153.203 232.08 155.579C237.672 154.162 253.946 152.254 279.161 167.562C310.843 186.791 344.718 173.97 344.718 173.97C344.718 173.97 337.19 188.013 321.192 188.925C305.194 189.842 263.477 164.205 249.363 171.53C235.245 178.854 228.659 169.696 223.011 188.013C217.367 206.325 207.018 256.377 218.937 284.459L230.853 312.536H163.102C163.102 312.536 187.57 249.052 174.079 209.988C166.528 188.11 155.926 172.266 151.971 164.214C149.987 160.181 149.673 158.107 152.243 158.209C153.704 158.269 156.097 159.033 159.652 160.542C159.652 160.542 143.34 144.976 138.01 144.976C132.676 144.976 107.58 142.536 99.4283 134.294C99.4283 134.294 87.8224 126.358 67.1183 145.893C46.4142 165.427 51.4344 165.427 32.9287 163.899C14.7132 162.394 0.442538 153.796 0 153.528C0.528191 153.736 21.8033 162.01 34.8083 157.797C47.9845 153.523 59.2763 137.345 70.8822 131.854C82.4882 126.358 89.388 119.033 105.072 126.969L94.7365 103.258L91.9052 96.7621L91.9004 96.7528C91.9004 96.7528 88.4458 52.1924 81.8601 49.1411C75.2743 46.0852 79.3523 38.1538 67.1183 36.6259C67.1183 36.6259 82.1741 34.7923 84.9959 44.8675C87.8224 54.9381 107.27 109.268 107.27 109.268C107.27 109.268 119.186 132.46 132.362 126.969C145.538 121.473 127.342 90.6503 127.342 90.6503L104.758 80.5751C104.758 80.5751 121.698 79.964 132.048 89.428C142.397 98.8873 143.026 129.409 143.026 129.409C143.026 129.409 169.059 133.072 175.336 146.809C175.336 146.809 179.414 134.6 171.572 127.275C169.611 125.441 167.551 122.256 165.566 118.51C158.045 104.133 155.326 87.8286 157.791 71.8751C158.957 64.0687 159.675 56.4336 158.395 54.6325C155.574 50.6644 143.654 26.2497 142.711 19.837C141.774 13.4289 143.654 0.00146484 143.654 0.00146484C143.654 0.00146484 143.968 16.4801 147.732 21.6705C151.496 26.8609 162.159 52.498 162.159 52.498C162.159 52.498 162.159 84.8488 170.943 100.721C179.728 116.593 196.663 134.294 195.726 145.893V152.606C195.726 152.606 214.545 135.211 213.289 129.409C212.033 123.612 210.467 109.875 198.547 101.638C186.627 93.396 178.785 80.2695 187.256 61.3462C192.019 50.7015 194.103 44.9833 195.017 42.0153L190.077 62.5685C190.077 62.5685 186.941 83.6264 195.726 90.9513C195.749 90.9698 195.768 90.9883 195.792 91.0068C204.562 98.341 216.111 111.708 216.111 111.708L216.078 111.12L213.603 67.7589L214.146 68.9164L218.057 77.2599L221.759 85.1543C221.759 85.1543 239.323 63.1797 260.027 55.8548C280.726 48.5299 293.588 22.8929 293.588 22.8929L311.157 9.46083L296.724 26.2497C296.724 26.2497 292.332 46.0852 267.555 60.1284C242.773 74.167 226.779 94.9193 225.837 107.74C224.895 120.561 223.953 131.854 223.953 131.854C223.953 131.854 270.377 130.326 280.726 110.486C291.081 90.6503 299.551 89.7335 299.551 89.7335L293.588 106.823L287.003 121.473C287.003 121.473 313.978 122.084 328.092 137.651C342.211 153.217 377.338 157.797 377.338 157.797L357.58 162.982C357.58 162.982 338.756 156.88 320.878 145.587C303.001 134.294 304.88 124.223 282.611 135.516Z" fill="#3F3D56"/>
<path opacity="0.1" d="M292.613 93.8728C290.629 102.42 288.292 110.676 285.009 116.968C274.659 136.808 228.235 138.336 228.235 138.336C228.235 138.336 228.454 135.715 228.787 131.581C240.574 130.636 272.794 126.603 281.202 110.486C281.973 109.013 282.687 107.43 283.362 105.763L292.613 93.8728Z" fill="black"/>
<path opacity="0.1" d="M220.394 118.19C220.394 118.19 208.788 104.758 200.008 97.4333C198.081 95.8313 196.73 93.5625 195.792 91.0066C195.716 90.8029 195.645 90.5946 195.573 90.3862C195.778 90.5807 195.983 90.7705 196.201 90.9511C203.886 97.3638 213.741 108.458 216.078 111.12C216.406 111.5 216.587 111.708 216.587 111.708L214.146 68.9163L218.057 77.2598L220.394 118.19Z" fill="black"/>
<path opacity="0.1" d="M227.112 79.6525C227.043 87.1671 226.041 91.6364 226.041 91.6364C226.041 91.6364 243.599 69.6706 264.296 62.3408C265.519 61.5879 266.76 60.8465 268.03 60.1269C292.81 46.0871 297.202 26.2483 297.202 26.2483L311.631 9.46167L294.065 22.891C294.065 22.891 281.204 48.5288 260.502 55.8539C246.391 60.847 233.739 72.6452 227.112 79.6525Z" fill="black"/>
<path opacity="0.1" d="M200.006 152.373V159.088C200.006 159.088 218.827 141.691 217.572 135.892C216.612 131.457 215.464 122.383 209.647 114.672C212.269 120.499 213.067 126.183 213.765 129.41C214.665 133.568 205.242 143.69 199.838 149.085C200.028 150.171 200.084 151.275 200.006 152.373Z" fill="black"/>
<path opacity="0.1" d="M174.76 106.294C174.91 106.603 175.063 106.908 175.226 107.202C180.036 115.894 187.288 125.134 192.714 133.621C188.329 125.216 180.697 115.605 174.76 106.294Z" fill="black"/>
<path opacity="0.1" d="M279.636 167.561C269.318 161.299 260.498 157.919 253.293 156.207C245.736 158.975 239.516 161.038 236.386 162.052C241.999 160.638 258.261 158.76 283.443 174.044C303.2 186.035 323.81 185.562 336.526 183.508C340.043 180.926 342.991 177.683 345.193 173.971C345.193 173.971 311.317 186.79 279.636 167.561Z" fill="black"/>
<path opacity="0.1" d="M190.053 93.3C187.523 87.2695 187.106 80.0937 190.012 71.685C189.976 68.6376 190.157 65.5914 190.553 62.5684L195.492 42.01C194.582 44.9747 192.498 50.6941 187.73 61.3475C181.694 74.8343 183.947 85.3731 190.053 93.3Z" fill="black"/>
<path opacity="0.1" d="M328.569 137.651C318.78 126.856 302.808 123.254 293.936 122.06L291.285 127.957C291.285 127.957 318.26 128.567 332.376 144.133C340.203 152.765 354.492 158.016 365.67 160.984L377.815 157.795C377.815 157.795 342.684 153.216 328.569 137.651Z" fill="black"/>
<path opacity="0.1" d="M136.645 133.45C149.819 127.957 131.626 97.1302 131.626 97.1302L131.128 96.9082C135.664 106.22 142.242 123.047 132.838 126.968C124.038 130.638 115.8 121.508 111.298 115.04C111.461 115.497 111.551 115.748 111.551 115.748C111.551 115.748 123.47 138.944 136.645 133.45Z" fill="black"/>
<path opacity="0.1" d="M179.618 153.289C179.618 153.289 183.587 141.383 176.13 134.032C177.958 140.365 175.811 146.807 175.811 146.807C170.958 136.182 154.282 131.586 146.978 130.049C147.261 133.586 147.309 135.892 147.309 135.892C147.309 135.892 173.344 139.555 179.618 153.289Z" fill="black"/>
<path opacity="0.1" d="M195.492 42.0101C196.199 39.7087 196.199 39.0671 196.199 39.0671L195.492 42.0101Z" fill="black"/>
<path opacity="0.1" d="M38.9023 164.335C38.9655 164.315 39.0298 164.297 39.0926 164.277C52.2668 160.004 63.559 143.828 75.1649 138.334C86.7708 132.84 93.6715 125.515 109.355 133.45C109.355 133.45 106.611 122.522 101.294 115.343C103.055 119.091 104.479 122.981 105.548 126.968C89.8647 119.033 82.9639 126.358 71.3581 131.852C59.7523 137.345 48.46 153.522 35.2858 157.795C22.1116 162.068 0.468262 153.522 0.468262 153.522C0.468262 153.522 14.8972 162.373 33.4038 163.899C35.5208 164.073 37.3272 164.227 38.9023 164.335Z" fill="black"/>
<path opacity="0.1" d="M96.183 103.235C96.183 103.235 95.6691 103.244 94.7364 103.258L91.9051 96.7619C92.2144 96.7573 92.3762 96.7527 92.3762 96.7527C92.3762 96.7527 90.1969 68.6478 85.9999 55.5491C86.0522 55.5722 86.0951 55.6 86.1426 55.6232C92.7284 58.6744 96.183 103.235 96.183 103.235Z" fill="black"/>
<path opacity="0.1" d="M169.676 312.537C175.423 295.394 189.245 247.988 178.363 216.468C173.663 202.856 169.307 194.176 165.625 188.638C168.379 193.88 171.39 200.814 174.556 209.986C188.044 249.053 163.578 312.537 163.578 312.537H169.676Z" fill="black"/>
<path opacity="0.1" d="M163.934 167.024C160.149 165.405 156.099 164.453 151.971 164.214C149.987 160.181 149.673 158.107 152.243 158.209C152.956 158.334 153.675 158.482 154.389 158.653C159.433 162.728 163.934 167.024 163.934 167.024Z" fill="black"/>
<path opacity="0.1" d="M79.017 46.1763C79.3748 46.7625 79.8083 47.3018 80.3069 47.7809C79.9407 47.2003 79.5079 46.662 79.017 46.1763Z" fill="black"/>
<path opacity="0.1" d="M136.331 95.9094C136.816 96.3556 137.27 96.8321 137.691 97.336C136.317 94.122 134.62 91.3428 132.524 89.4272C122.173 79.9657 105.235 80.5761 105.235 80.5761L126.477 90.0496C130.117 91.3709 133.462 93.3602 136.331 95.9094Z" fill="black"/>
<path opacity="0.1" d="M158.872 54.6329C160.153 56.4321 159.433 64.0673 158.265 71.876C155.801 87.8289 158.52 104.132 166.043 118.508C167.042 120.432 168.158 122.296 169.385 124.091C162.216 109.927 159.665 93.9714 162.072 78.3582C163.24 70.5495 163.959 62.9143 162.679 61.1151C159.856 57.1474 147.937 32.7304 146.996 26.321C146.714 23.8344 146.648 21.3291 146.799 18.8317C144.363 12.1049 144.13 0 144.13 0C144.13 0 142.248 13.4294 143.189 19.8388C144.13 26.2482 156.049 50.6652 158.872 54.6329Z" fill="black"/>
<path opacity="0.1" d="M188.3 12.4384C188.174 11.8352 187.983 11.2466 187.73 10.6824C187.73 10.6824 187.971 11.3411 188.3 12.4384Z" fill="black"/>
<path opacity="0.1" d="M77.5095 43.1775C80.2739 43.5067 83.4539 44.3321 85.8794 46.2461C85.7212 45.7254 85.5832 45.2586 85.4733 44.8663C82.6502 34.7943 67.594 36.6256 67.594 36.6256C74.3981 37.4743 76.1556 40.3061 77.5095 43.1775Z" fill="black"/>
<path d="M373.309 296.856C368.631 303.836 369.913 312.714 369.913 312.714C369.913 312.714 378.779 310.275 383.457 303.295C388.135 296.314 386.854 287.436 386.854 287.436C386.854 287.436 377.987 289.875 373.309 296.856Z" fill="#3F3D56"/>
<path d="M376.823 298.09C376.453 306.415 370.102 312.91 370.102 312.91C370.102 312.91 364.35 305.907 364.719 297.581C365.089 289.255 371.441 282.76 371.441 282.76C371.441 282.76 377.193 289.764 376.823 298.09Z" fill="#5850EC"/>
<path d="M294.429 245.402C294.429 245.402 299.811 239.907 302.014 241.013C304.217 242.118 295.68 247.032 295.68 247.032L294.429 245.402Z" fill="#FFB9B9"/>
<path opacity="0.1" d="M294.429 245.402C294.429 245.402 299.811 239.907 302.014 241.013C304.217 242.118 295.68 247.032 295.68 247.032L294.429 245.402Z" fill="black"/>
<path d="M278.005 233.41C278.005 233.41 276.027 236.861 276.544 240.581C277.062 244.301 281.797 256.239 283.407 256.027C285.017 255.814 296.942 247.264 296.942 247.264L294.668 244.174L285.956 249.31C285.956 249.31 284.629 230.942 278.005 233.41Z" fill="#D0CDE1"/>
<path d="M310.307 241.81L296.726 249.069C296.648 249.12 296.558 249.153 296.465 249.167C296.371 249.181 296.276 249.174 296.185 249.148C296.095 249.122 296.011 249.077 295.94 249.016C295.869 248.955 295.813 248.88 295.775 248.796L292.449 242.03C292.385 241.837 292.396 241.628 292.477 241.442C292.559 241.256 292.707 241.104 292.893 241.015L304.169 235.36C304.308 235.279 304.472 235.251 304.631 235.28C304.791 235.31 304.933 235.395 305.031 235.521L310.663 240.684C310.719 240.78 310.754 240.886 310.766 240.996C310.778 241.105 310.767 241.216 310.733 241.322C310.7 241.427 310.645 241.525 310.572 241.609C310.498 241.693 310.408 241.761 310.307 241.81Z" fill="#2F2E41"/>
<path d="M309.4 240.811L296.669 247.892L293.281 241.95L304.203 236.171L309.4 240.811Z" fill="#5850EC"/>
<path d="M298.718 238.764C298.785 238.687 298.784 238.58 298.716 238.525C298.648 238.47 298.539 238.488 298.473 238.565C298.407 238.642 298.408 238.75 298.476 238.805C298.543 238.86 298.652 238.842 298.718 238.764Z" fill="#F2F2F2"/>
<path d="M303.405 244.81C303.449 244.758 303.448 244.687 303.403 244.65C303.358 244.613 303.285 244.625 303.241 244.677C303.197 244.728 303.198 244.8 303.243 244.837C303.288 244.873 303.36 244.861 303.405 244.81Z" fill="#F2F2F2"/>
<path opacity="0.1" d="M278.005 233.41C278.005 233.41 276.027 236.861 276.544 240.581C277.062 244.301 281.797 256.239 283.407 256.027C285.017 255.814 296.942 247.264 296.942 247.264L294.668 244.174L285.956 249.31C285.956 249.31 284.629 230.942 278.005 233.41Z" fill="black"/>
<path d="M290.789 246.452C290.789 246.452 296.881 241.71 298.912 243.093C300.943 244.476 291.805 248.23 291.805 248.23L290.789 246.452Z" fill="#FFB9B9"/>
<path d="M282.667 227.484C285.919 227.484 288.556 224.918 288.556 221.754C288.556 218.589 285.919 216.023 282.667 216.023C279.415 216.023 276.778 218.589 276.778 221.754C276.778 224.918 279.415 227.484 282.667 227.484Z" fill="#FFB9B9"/>
<path d="M302.973 261.667C302.973 261.667 309.268 262.457 309.065 266.211C308.862 269.965 304.192 285.575 304.192 285.575L303.786 291.7C303.786 291.7 304.192 301.975 302.973 301.777C301.755 301.579 298.912 294.466 298.912 294.466C298.912 294.466 295.46 292.293 297.084 290.317C298.709 288.341 299.927 288.539 299.521 286.365C299.115 284.192 299.318 275.103 300.537 272.336C301.755 269.57 302.465 268.044 302.465 268.044L298.506 267.792L302.973 261.667Z" fill="#FFB9B9"/>
<path opacity="0.1" d="M302.973 261.667C302.973 261.667 309.268 262.457 309.065 266.211C308.862 269.965 304.192 285.575 304.192 285.575L303.786 291.7C303.786 291.7 304.192 301.975 302.973 301.777C301.755 301.579 298.912 294.466 298.912 294.466C298.912 294.466 295.46 292.293 297.084 290.317C298.709 288.341 299.927 288.539 299.521 286.365C299.115 284.192 299.318 275.103 300.537 272.336C301.755 269.57 302.465 268.044 302.465 268.044L298.506 267.792L302.973 261.667Z" fill="black"/>
<path d="M303.379 262.654C303.379 262.654 309.471 264.037 310.081 267.989C310.69 271.941 313.736 283.599 313.736 283.599L316.985 290.909C316.985 290.909 322.061 299.801 319.828 299.603C317.594 299.406 314.548 295.059 313.533 295.059C312.517 295.059 309.471 293.873 309.674 293.083C309.878 292.293 311.299 289.921 311.299 289.921L306.386 281.594C305.437 279.987 304.72 278.26 304.255 276.463C303.751 274.512 303.176 272.123 303.176 271.348C303.176 269.965 299.115 269.372 299.115 269.372L303.379 262.654Z" fill="#FFB9B9"/>
<path d="M283.479 250.009L286.322 257.912C286.322 257.912 290.789 259.098 294.038 260.086C297.288 261.074 303.379 259.691 303.989 262.062C304.598 264.433 302.77 268.582 300.943 269.57C299.115 270.558 298.1 271.546 292.211 269.965C286.322 268.385 272.311 267.989 272.311 267.989C270.952 268.782 269.423 269.256 267.843 269.372C265.203 269.57 264.594 269.768 263.782 269.175C262.97 268.582 264.188 268.582 264.594 267.001C265 265.421 265.203 266.013 267.031 264.235C268.858 262.457 270.28 257.122 271.295 255.344C272.311 253.565 272.92 250.009 272.92 250.009H283.479Z" fill="#2F2E41"/>
<path d="M283.073 226.496C282.335 227.02 281.732 227.703 281.309 228.491C280.886 229.279 280.656 230.151 280.636 231.04C280.636 234.004 274.544 227.879 274.544 227.879C274.544 227.879 277.793 223.927 277.793 222.741C277.793 221.556 283.073 226.496 283.073 226.496Z" fill="#FFB9B9"/>
<path d="M275.356 225.31C275.356 225.31 279.012 226.693 279.824 228.669C280.636 230.645 283.682 234.794 283.682 234.794C283.682 234.794 287.947 239.141 286.525 243.883C285.104 248.625 283.885 249.811 283.885 250.601C283.885 251.392 281.855 252.775 280.23 252.577C278.606 252.38 272.514 251.589 272.107 250.799C271.701 250.009 269.265 238.746 270.889 234.597C272.207 231.426 273.698 228.326 275.356 225.31Z" fill="#D0CDE1"/>
<path d="M284.375 222.014C285.693 222.319 286.986 221.502 288.066 220.692C288.679 220.232 289.354 219.576 289.166 218.835C288.999 218.179 288.204 217.806 288.088 217.139C288.008 216.675 288.287 216.224 288.309 215.754C288.289 215.396 288.168 215.05 287.96 214.754C287.751 214.458 287.463 214.223 287.127 214.076C286.485 213.74 285.757 213.599 285.097 213.298C284.09 212.838 283.253 212.01 282.177 211.744C280.707 211.381 279.211 212.154 277.7 212.254C276.786 212.314 275.86 212.127 274.955 212.273C274.093 212.442 273.314 212.89 272.744 213.543C272.175 214.195 271.848 215.016 271.816 215.872C271.804 216.501 271.933 217.202 271.548 217.701C271.395 217.873 271.222 218.026 271.031 218.156C269.687 219.213 269.077 220.98 269.008 222.682C268.974 223.519 269.154 224.514 269.918 224.87C270.327 225.006 270.759 225.065 271.191 225.042C271.408 225.033 271.624 225.076 271.82 225.167C272.016 225.258 272.186 225.395 272.315 225.564C272.663 226.161 272.142 227.043 272.597 227.564C272.938 227.956 273.605 227.826 274.004 227.492C274.403 227.159 274.652 226.679 275.031 226.323C275.767 225.629 276.859 225.503 277.868 225.398C278.166 225.395 278.457 225.303 278.7 225.132C278.883 224.945 279.002 224.707 279.041 224.451C279.174 223.863 279.175 223.253 279.046 222.664C278.982 222.481 278.974 222.285 279.023 222.098C279.089 221.965 279.192 221.853 279.321 221.773C279.946 221.316 281.041 220.651 281.854 220.776C282.756 220.916 283.465 221.804 284.375 222.014Z" fill="#2F2E41"/>
<path d="M276.169 232.423C276.169 232.423 273.732 235.585 273.732 239.339C273.732 243.093 276.778 255.541 278.402 255.541C280.027 255.541 293.023 248.626 293.023 248.626L291.196 245.267L281.855 249.218C281.855 249.218 283.073 230.843 276.169 232.423Z" fill="#D0CDE1"/>
<path d="M303.741 268.088H257.108V276.885H303.741V268.088Z" fill="#5850EC"/>
<path d="M280.425 277.348C279.415 277.347 278.448 276.956 277.734 276.262C277.02 275.567 276.619 274.626 276.618 273.644V169.466C276.618 168.765 276.822 168.079 277.206 167.487C277.591 166.895 278.14 166.421 278.79 166.12C279.44 165.82 280.165 165.705 280.879 165.788C281.594 165.872 282.27 166.151 282.828 166.593L282.227 167.311C281.808 166.98 281.301 166.77 280.765 166.708C280.229 166.645 279.686 166.731 279.199 166.957C278.711 167.182 278.299 167.538 278.011 167.982C277.722 168.426 277.569 168.941 277.569 169.466V273.644C277.57 274.38 277.871 275.087 278.407 275.607C278.942 276.128 279.668 276.421 280.425 276.422V277.348Z" fill="#3F3D56"/>
<path d="M407 312.074H23.4669V313H407V312.074Z" fill="#3F3D56"/>
<path d="M273.229 219.165C273.434 219.005 273.2 218.39 272.706 217.792C272.212 217.194 271.646 216.839 271.441 216.999C271.236 217.159 271.47 217.774 271.964 218.372C272.458 218.97 273.024 219.325 273.229 219.165Z" fill="#5850EC"/>
<path d="M232.458 296.856C227.78 303.836 229.062 312.714 229.062 312.714C229.062 312.714 237.929 310.275 242.607 303.295C247.285 296.314 246.003 287.436 246.003 287.436C246.003 287.436 237.136 289.875 232.458 296.856Z" fill="#3F3D56"/>
<path d="M235.972 298.09C235.602 306.415 229.251 312.91 229.251 312.91C229.251 312.91 223.499 305.907 223.868 297.581C224.238 289.255 230.59 282.76 230.59 282.76C230.59 282.76 236.342 289.764 235.972 298.09Z" fill="#5850EC"/>
<path d="M155.472 299.496C157.708 307.541 165.368 312.523 165.368 312.523C165.368 312.523 169.403 304.462 167.166 296.418C164.93 288.374 157.269 283.392 157.269 283.392C157.269 283.392 153.235 291.452 155.472 299.496Z" fill="#3F3D56"/>
<path d="M158.758 297.768C164.895 303.58 165.644 312.516 165.644 312.516C165.644 312.516 156.444 312.027 150.307 306.214C144.17 300.402 143.421 291.466 143.421 291.466C143.421 291.466 152.621 291.955 158.758 297.768Z" fill="#5850EC"/>
<path d="M138.417 79.6599C137.884 87.9772 131.406 94.3525 131.406 94.3525C131.406 94.3525 125.792 87.2429 126.326 78.9256C126.859 70.6083 133.338 64.2329 133.338 64.2329C133.338 64.2329 138.951 71.3426 138.417 79.6599Z" fill="#5850EC"/>
<path d="M70.887 27.0793C78.1318 31.5237 80.7743 40.1126 80.7743 40.1126C80.7743 40.1126 71.6706 41.4957 64.4258 37.0513C57.1809 32.6069 54.5385 24.018 54.5385 24.018C54.5385 24.018 63.6422 22.6349 70.887 27.0793Z" fill="#5850EC"/>
<path d="M54.7081 128.479C61.953 132.924 64.5954 141.513 64.5954 141.513C64.5954 141.513 55.4918 142.896 48.2469 138.451C41.0021 134.007 38.3596 125.418 38.3596 125.418C38.3596 125.418 47.4633 124.035 54.7081 128.479Z" fill="#5850EC"/>
<path d="M201.992 41.9033C199.808 49.9611 192.179 54.9896 192.179 54.9896C192.179 54.9896 188.093 46.9538 190.278 38.8961C192.463 30.8383 200.091 25.8098 200.091 25.8098C200.091 25.8098 204.177 33.8456 201.992 41.9033Z" fill="#5850EC"/>
<path d="M270.912 48.1861C268.344 56.1362 260.483 60.8137 260.483 60.8137C260.483 60.8137 256.786 52.6016 259.354 44.6515C261.922 36.7014 269.783 32.0239 269.783 32.0239C269.783 32.0239 273.48 40.236 270.912 48.1861Z" fill="#5850EC"/>
<path d="M345.403 136.667C340.752 143.664 331.894 146.135 331.894 146.135C331.894 146.135 330.579 137.261 335.231 130.264C339.882 123.267 348.74 120.796 348.74 120.796C348.74 120.796 350.055 129.67 345.403 136.667Z" fill="#5850EC"/>
</g>
<defs>
<clipPath id="clip0_1_852">
<rect width="407" height="313" fill="white"/>
</clipPath>
</defs>
</svg>
