<svg width="1440" height="1083" viewBox="0 0 1440 1083" fill="none" xmlns="http://www.w3.org/2000/svg">
<mask id="mask0_170_267" style="mask-type:alpha" maskUnits="userSpaceOnUse" x="0" y="0" width="1440" height="1083">
<path d="M0 0H1440V975C1440 1034.65 1391.65 1083 1332 1083H108C48.3532 1083 0 1034.65 0 975V0Z" fill="#F0F1F9"/>
</mask>
<g mask="url(#mask0_170_267)">
<rect width="1440" height="1280.15" fill="url(#paint0_linear_170_267)"/>
<g filter="url(#filter0_f_170_267)">
<ellipse cx="295.149" cy="802.265" rx="295.149" ry="802.265" transform="matrix(-0.175858 0.984415 -0.972819 -0.231567 990.726 471.982)" fill="url(#paint1_radial_170_267)"/>
</g>
<ellipse cx="396.5" cy="275.307" rx="1.5" ry="1.73149" fill="#E8EBF1" fill-opacity="0.23"/>
<ellipse cx="729.5" cy="360.728" rx="1.5" ry="1.73149" fill="#E8EBF1" fill-opacity="0.23"/>
<ellipse cx="885.5" cy="455.382" rx="1.5" ry="1.73149" fill="#E8EBF1" fill-opacity="0.23"/>
<ellipse cx="734" cy="205.47" rx="3" ry="3.46299" fill="#E8EBF1" fill-opacity="0.23"/>
<ellipse cx="460" cy="219.321" rx="3" ry="3.46299" fill="#E8EBF1" fill-opacity="0.23"/>
<ellipse cx="1235" cy="450.188" rx="3" ry="3.46299" fill="#E8EBF1" fill-opacity="0.23"/>
<ellipse cx="257" cy="393.625" rx="3" ry="3.46299" fill="#E8EBF1" fill-opacity="0.23"/>
<ellipse cx="1305" cy="227.402" rx="3" ry="3.46299" fill="#E8EBF1" fill-opacity="0.23"/>
<ellipse cx="1069" cy="503.287" rx="2" ry="2.30866" fill="#E8EBF1" fill-opacity="0.23"/>
<ellipse cx="1114" cy="271.267" rx="2" ry="2.30866" fill="#E8EBF1" fill-opacity="0.23"/>
<ellipse cx="125" cy="376.311" rx="2" ry="2.30866" fill="#E8EBF1" fill-opacity="0.23"/>
<ellipse cx="1022" cy="204.315" rx="2" ry="2.30866" fill="#E8EBF1" fill-opacity="0.23"/>
<path d="M0 596.693C271 511.368 945.5 528.683 1440 999.65" stroke="white" stroke-opacity="0.2"/>
<path d="M2066.5 404.015C1810.17 397.666 1192.4 326.444 772 92.3458" stroke="white" stroke-opacity="0.17"/>
<g filter="url(#filter1_f_170_267)">
<ellipse cx="295.149" cy="802.265" rx="295.149" ry="802.265" transform="matrix(-0.175858 0.984415 -0.972819 -0.231567 2465.73 93.3613)" fill="url(#paint2_radial_170_267)"/>
</g>
</g>
<defs>
<filter id="filter0_f_170_267" x="-923.849" y="-68.1543" width="2164.42" height="1289.82" filterUnits="userSpaceOnUse" color-interpolation-filters="sRGB">
<feFlood flood-opacity="0" result="BackgroundImageFix"/>
<feBlend mode="normal" in="SourceGraphic" in2="BackgroundImageFix" result="shape"/>
<feGaussianBlur stdDeviation="150" result="effect1_foregroundBlur_170_267"/>
</filter>
<filter id="filter1_f_170_267" x="551.15" y="-446.775" width="2164.42" height="1289.82" filterUnits="userSpaceOnUse" color-interpolation-filters="sRGB">
<feFlood flood-opacity="0" result="BackgroundImageFix"/>
<feBlend mode="normal" in="SourceGraphic" in2="BackgroundImageFix" result="shape"/>
<feGaussianBlur stdDeviation="150" result="effect1_foregroundBlur_170_267"/>
</filter>
<linearGradient id="paint0_linear_170_267" x1="1124.5" y1="-0.000101265" x2="-287.891" y2="695.598" gradientUnits="userSpaceOnUse">
<stop stop-color="#030712"/>
<stop offset="0.810049" stop-color="#232178"/>
</linearGradient>
<radialGradient id="paint1_radial_170_267" cx="0" cy="0" r="1" gradientUnits="userSpaceOnUse" gradientTransform="translate(295.149 802.265) rotate(90) scale(802.265 295.149)">
<stop stop-color="#599CFF"/>
<stop offset="1" stop-color="white" stop-opacity="0"/>
</radialGradient>
<radialGradient id="paint2_radial_170_267" cx="0" cy="0" r="1" gradientUnits="userSpaceOnUse" gradientTransform="translate(295.149 802.265) rotate(90) scale(802.265 295.149)">
<stop stop-color="#B659FF"/>
<stop offset="1" stop-color="#C376FF" stop-opacity="0"/>
</radialGradient>
</defs>
</svg>
