<svg width="36" height="36" viewBox="0 0 36 36" fill="none" xmlns="http://www.w3.org/2000/svg">
<circle cx="18" cy="18" r="18" fill="#D9D9D9"/>
<g clip-path="url(#clip0_54_3)">
<path d="M23.625 14.25C23.625 15.7418 23.0324 17.1726 21.9775 18.2275C20.9226 19.2824 19.4918 19.875 18 19.875C16.5082 19.875 15.0774 19.2824 14.0225 18.2275C12.9676 17.1726 12.375 15.7418 12.375 14.25C12.375 12.7582 12.9676 11.3274 14.0225 10.2725C15.0774 9.21763 16.5082 8.625 18 8.625C19.4918 8.625 20.9226 9.21763 21.9775 10.2725C23.0324 11.3274 23.625 12.7582 23.625 14.25Z" fill="black"/>
<path fill-rule="evenodd" clip-rule="evenodd" d="M3 18C3 14.0218 4.58035 10.2064 7.3934 7.3934C10.2064 4.58035 14.0218 3 18 3C21.9782 3 25.7936 4.58035 28.6066 7.3934C31.4196 10.2064 33 14.0218 33 18C33 21.9782 31.4196 25.7936 28.6066 28.6066C25.7936 31.4196 21.9782 33 18 33C14.0218 33 10.2064 31.4196 7.3934 28.6066C4.58035 25.7936 3 21.9782 3 18ZM18 4.875C15.5283 4.87513 13.1069 5.57318 11.0145 6.8888C8.92207 8.20442 7.24366 10.0841 6.17243 12.3116C5.10121 14.5391 4.68072 17.0238 4.95937 19.4797C5.23802 21.9356 6.20447 24.2629 7.7475 26.1938C9.07875 24.0487 12.0094 21.75 18 21.75C23.9906 21.75 26.9194 24.0469 28.2525 26.1938C29.7955 24.2629 30.762 21.9356 31.0406 19.4797C31.3193 17.0238 30.8988 14.5391 29.8276 12.3116C28.7563 10.0841 27.0779 8.20442 24.9855 6.8888C22.8931 5.57318 20.4717 4.87513 18 4.875Z" fill="black"/>
</g>
<defs>
<clipPath id="clip0_54_3">
<rect width="30" height="30" fill="white" transform="translate(3 3)"/>
</clipPath>
</defs>
</svg>
